<?xml version="1.0" encoding="UTF-8"?>
<svg xmlns="http://www.w3.org/2000/svg" xmlns:xlink="http://www.w3.org/1999/xlink" width="32pt" height="32pt" viewBox="0 0 32 32" version="1.1">
<g id="surface1">
<path style=" stroke:none;fill-rule:nonzero;fill:#808080;fill-opacity:1;" d="M 3.601563 3.601563 L 3.601563 28.398438 L 28.398438 28.398438 L 28.398438 27.601563 L 4.398438 27.601563 L 4.398438 3.601563 Z M 8 3.601563 C 7.78125 3.601563 7.601563 3.78125 7.601563 4 C 7.601563 4.21875 7.78125 4.398438 8 4.398438 C 8.21875 4.398438 8.398438 4.21875 8.398438 4 C 8.398438 3.78125 8.21875 3.601563 8 3.601563 Z M 12 3.601563 C 11.78125 3.601563 11.601563 3.78125 11.601563 4 C 11.601563 4.21875 11.78125 4.398438 12 4.398438 C 12.21875 4.398438 12.398438 4.21875 12.398438 4 C 12.398438 3.78125 12.21875 3.601563 12 3.601563 Z M 16 3.601563 C 15.78125 3.601563 15.601563 3.78125 15.601563 4 C 15.601563 4.21875 15.78125 4.398438 16 4.398438 C 16.21875 4.398438 16.398438 4.21875 16.398438 4 C 16.398438 3.78125 16.21875 3.601563 16 3.601563 Z M 20 3.601563 C 19.78125 3.601563 19.601563 3.78125 19.601563 4 C 19.601563 4.21875 19.78125 4.398438 20 4.398438 C 20.21875 4.398438 20.398438 4.21875 20.398438 4 C 20.398438 3.78125 20.21875 3.601563 20 3.601563 Z M 24 3.601563 C 23.78125 3.601563 23.601563 3.78125 23.601563 4 C 23.601563 4.21875 23.78125 4.398438 24 4.398438 C 24.21875 4.398438 24.398438 4.21875 24.398438 4 C 24.398438 3.78125 24.21875 3.601563 24 3.601563 Z M 28 3.601563 C 27.78125 3.601563 27.601563 3.78125 27.601563 4 C 27.601563 4.21875 27.78125 4.398438 28 4.398438 C 28.21875 4.398438 28.398438 4.21875 28.398438 4 C 28.398438 3.78125 28.21875 3.601563 28 3.601563 Z M 28 6.398438 C 27.121094 6.398438 26.398438 7.121094 26.398438 8 C 26.398438 8.296875 26.484375 8.570313 26.625 8.804688 L 20.804688 14.625 C 20.570313 14.484375 20.296875 14.398438 20 14.398438 C 19.703125 14.398438 19.429688 14.484375 19.195313 14.625 L 17.375 12.804688 C 17.515625 12.570313 17.601563 12.296875 17.601563 12 C 17.601563 11.121094 16.878906 10.398438 16 10.398438 C 15.121094 10.398438 14.398438 11.121094 14.398438 12 C 14.398438 12.296875 14.484375 12.570313 14.625 12.804688 L 8.804688 18.625 C 8.570313 18.484375 8.296875 18.398438 8 18.398438 C 7.121094 18.398438 6.398438 19.121094 6.398438 20 C 6.398438 20.878906 7.121094 21.601563 8 21.601563 C 8.878906 21.601563 9.601563 20.878906 9.601563 20 C 9.601563 19.703125 9.515625 19.429688 9.375 19.195313 L 15.195313 13.375 C 15.429688 13.515625 15.703125 13.601563 16 13.601563 C 16.296875 13.601563 16.570313 13.515625 16.804688 13.375 L 18.625 15.195313 C 18.484375 15.429688 18.398438 15.703125 18.398438 16 C 18.398438 16.878906 19.121094 17.601563 20 17.601563 C 20.878906 17.601563 21.601563 16.878906 21.601563 16 C 21.601563 15.703125 21.515625 15.429688 21.375 15.195313 L 27.195313 9.375 C 27.429688 9.515625 27.703125 9.601563 28 9.601563 C 28.878906 9.601563 29.601563 8.878906 29.601563 8 C 29.601563 7.121094 28.878906 6.398438 28 6.398438 Z M 28 7.199219 C 28.445313 7.199219 28.800781 7.554688 28.800781 8 C 28.800781 8.445313 28.445313 8.800781 28 8.800781 C 27.554688 8.800781 27.199219 8.445313 27.199219 8 C 27.199219 7.554688 27.554688 7.199219 28 7.199219 Z M 8 7.601563 C 7.78125 7.601563 7.601563 7.78125 7.601563 8 C 7.601563 8.21875 7.78125 8.398438 8 8.398438 C 8.21875 8.398438 8.398438 8.21875 8.398438 8 C 8.398438 7.78125 8.21875 7.601563 8 7.601563 Z M 12 7.601563 C 11.78125 7.601563 11.601563 7.78125 11.601563 8 C 11.601563 8.21875 11.78125 8.398438 12 8.398438 C 12.21875 8.398438 12.398438 8.21875 12.398438 8 C 12.398438 7.78125 12.21875 7.601563 12 7.601563 Z M 16 7.601563 C 15.78125 7.601563 15.601563 7.78125 15.601563 8 C 15.601563 8.21875 15.78125 8.398438 16 8.398438 C 16.21875 8.398438 16.398438 8.21875 16.398438 8 C 16.398438 7.78125 16.21875 7.601563 16 7.601563 Z M 20 7.601563 C 19.78125 7.601563 19.601563 7.78125 19.601563 8 C 19.601563 8.21875 19.78125 8.398438 20 8.398438 C 20.21875 8.398438 20.398438 8.21875 20.398438 8 C 20.398438 7.78125 20.21875 7.601563 20 7.601563 Z M 24 7.601563 C 23.78125 7.601563 23.601563 7.78125 23.601563 8 C 23.601563 8.21875 23.78125 8.398438 24 8.398438 C 24.21875 8.398438 24.398438 8.21875 24.398438 8 C 24.398438 7.78125 24.21875 7.601563 24 7.601563 Z M 16 11.199219 C 16.445313 11.199219 16.800781 11.554688 16.800781 12 C 16.800781 12.445313 16.445313 12.800781 16 12.800781 C 15.554688 12.800781 15.199219 12.445313 15.199219 12 C 15.199219 11.554688 15.554688 11.199219 16 11.199219 Z M 8 11.601563 C 7.78125 11.601563 7.601563 11.78125 7.601563 12 C 7.601563 12.21875 7.78125 12.398438 8 12.398438 C 8.21875 12.398438 8.398438 12.21875 8.398438 12 C 8.398438 11.78125 8.21875 11.601563 8 11.601563 Z M 12 11.601563 C 11.78125 11.601563 11.601563 11.78125 11.601563 12 C 11.601563 12.21875 11.78125 12.398438 12 12.398438 C 12.21875 12.398438 12.398438 12.21875 12.398438 12 C 12.398438 11.78125 12.21875 11.601563 12 11.601563 Z M 20 11.601563 C 19.78125 11.601563 19.601563 11.78125 19.601563 12 C 19.601563 12.21875 19.78125 12.398438 20 12.398438 C 20.21875 12.398438 20.398438 12.21875 20.398438 12 C 20.398438 11.78125 20.21875 11.601563 20 11.601563 Z M 28 11.601563 C 27.78125 11.601563 27.601563 11.78125 27.601563 12 C 27.601563 12.21875 27.78125 12.398438 28 12.398438 C 28.21875 12.398438 28.398438 12.21875 28.398438 12 C 28.398438 11.78125 28.21875 11.601563 28 11.601563 Z M 20 15.199219 C 20.445313 15.199219 20.800781 15.554688 20.800781 16 C 20.800781 16.445313 20.445313 16.800781 20 16.800781 C 19.554688 16.800781 19.199219 16.445313 19.199219 16 C 19.199219 15.554688 19.554688 15.199219 20 15.199219 Z M 8 15.601563 C 7.78125 15.601563 7.601563 15.78125 7.601563 16 C 7.601563 16.21875 7.78125 16.398438 8 16.398438 C 8.21875 16.398438 8.398438 16.21875 8.398438 16 C 8.398438 15.78125 8.21875 15.601563 8 15.601563 Z M 16 15.601563 C 15.78125 15.601563 15.601563 15.78125 15.601563 16 C 15.601563 16.21875 15.78125 16.398438 16 16.398438 C 16.21875 16.398438 16.398438 16.21875 16.398438 16 C 16.398438 15.78125 16.21875 15.601563 16 15.601563 Z M 24 15.601563 C 23.78125 15.601563 23.601563 15.78125 23.601563 16 C 23.601563 16.21875 23.78125 16.398438 24 16.398438 C 24.21875 16.398438 24.398438 16.21875 24.398438 16 C 24.398438 15.78125 24.21875 15.601563 24 15.601563 Z M 28 15.601563 C 27.78125 15.601563 27.601563 15.78125 27.601563 16 C 27.601563 16.21875 27.78125 16.398438 28 16.398438 C 28.21875 16.398438 28.398438 16.21875 28.398438 16 C 28.398438 15.78125 28.21875 15.601563 28 15.601563 Z M 8 19.199219 C 8.445313 19.199219 8.800781 19.554688 8.800781 20 C 8.800781 20.445313 8.445313 20.800781 8 20.800781 C 7.554688 20.800781 7.199219 20.445313 7.199219 20 C 7.199219 19.554688 7.554688 19.199219 8 19.199219 Z M 12 19.601563 C 11.78125 19.601563 11.601563 19.78125 11.601563 20 C 11.601563 20.21875 11.78125 20.398438 12 20.398438 C 12.21875 20.398438 12.398438 20.21875 12.398438 20 C 12.398438 19.78125 12.21875 19.601563 12 19.601563 Z M 16 19.601563 C 15.78125 19.601563 15.601563 19.78125 15.601563 20 C 15.601563 20.21875 15.78125 20.398438 16 20.398438 C 16.21875 20.398438 16.398438 20.21875 16.398438 20 C 16.398438 19.78125 16.21875 19.601563 16 19.601563 Z M 20 19.601563 C 19.78125 19.601563 19.601563 19.78125 19.601563 20 C 19.601563 20.21875 19.78125 20.398438 20 20.398438 C 20.21875 20.398438 20.398438 20.21875 20.398438 20 C 20.398438 19.78125 20.21875 19.601563 20 19.601563 Z M 24 19.601563 C 23.78125 19.601563 23.601563 19.78125 23.601563 20 C 23.601563 20.21875 23.78125 20.398438 24 20.398438 C 24.21875 20.398438 24.398438 20.21875 24.398438 20 C 24.398438 19.78125 24.21875 19.601563 24 19.601563 Z M 28 19.601563 C 27.78125 19.601563 27.601563 19.78125 27.601563 20 C 27.601563 20.21875 27.78125 20.398438 28 20.398438 C 28.21875 20.398438 28.398438 20.21875 28.398438 20 C 28.398438 19.78125 28.21875 19.601563 28 19.601563 Z M 8 23.601563 C 7.78125 23.601563 7.601563 23.78125 7.601563 24 C 7.601563 24.21875 7.78125 24.398438 8 24.398438 C 8.21875 24.398438 8.398438 24.21875 8.398438 24 C 8.398438 23.78125 8.21875 23.601563 8 23.601563 Z M 12 23.601563 C 11.78125 23.601563 11.601563 23.78125 11.601563 24 C 11.601563 24.21875 11.78125 24.398438 12 24.398438 C 12.21875 24.398438 12.398438 24.21875 12.398438 24 C 12.398438 23.78125 12.21875 23.601563 12 23.601563 Z M 16 23.601563 C 15.78125 23.601563 15.601563 23.78125 15.601563 24 C 15.601563 24.21875 15.78125 24.398438 16 24.398438 C 16.21875 24.398438 16.398438 24.21875 16.398438 24 C 16.398438 23.78125 16.21875 23.601563 16 23.601563 Z M 20 23.601563 C 19.78125 23.601563 19.601563 23.78125 19.601563 24 C 19.601563 24.21875 19.78125 24.398438 20 24.398438 C 20.21875 24.398438 20.398438 24.21875 20.398438 24 C 20.398438 23.78125 20.21875 23.601563 20 23.601563 Z M 24 23.601563 C 23.78125 23.601563 23.601563 23.78125 23.601563 24 C 23.601563 24.21875 23.78125 24.398438 24 24.398438 C 24.21875 24.398438 24.398438 24.21875 24.398438 24 C 24.398438 23.78125 24.21875 23.601563 24 23.601563 Z M 28 23.601563 C 27.78125 23.601563 27.601563 23.78125 27.601563 24 C 27.601563 24.21875 27.78125 24.398438 28 24.398438 C 28.21875 24.398438 28.398438 24.21875 28.398438 24 C 28.398438 23.78125 28.21875 23.601563 28 23.601563 Z "/>
</g>
</svg>
