<?xml version="1.0" encoding="UTF-8" standalone="no"?>
<!-- Created with Inkscape (http://www.inkscape.org/) -->

<svg
   xmlns:dc="http://purl.org/dc/elements/1.1/"
   xmlns:cc="http://creativecommons.org/ns#"
   xmlns:rdf="http://www.w3.org/1999/02/22-rdf-syntax-ns#"
   xmlns:svg="http://www.w3.org/2000/svg"
   xmlns="http://www.w3.org/2000/svg"
   xmlns:xlink="http://www.w3.org/1999/xlink"
   xmlns:sodipodi="http://sodipodi.sourceforge.net/DTD/sodipodi-0.dtd"
   xmlns:inkscape="http://www.inkscape.org/namespaces/inkscape"
   sodipodi:docname="bioreactor_shadow_IO_error.svg"
   inkscape:version="0.92.3 (2405546, 2018-03-11)"
   id="svg8"
   version="1.1"
   viewBox="0 0 125.6583 132.48125"
   height="132.48125mm"
   width="125.6583mm">
  <sodipodi:namedview
     fit-margin-bottom="0"
     fit-margin-right="0"
     fit-margin-left="0"
     fit-margin-top="0"
     inkscape:window-maximized="1"
     inkscape:window-y="-8"
     inkscape:window-x="1912"
     inkscape:window-height="1017"
     inkscape:window-width="1920"
     inkscape:snap-global="false"
     showgrid="false"
     inkscape:current-layer="layer1"
     inkscape:document-units="mm"
     inkscape:cy="138.40779"
     inkscape:cx="354.1487"
     inkscape:zoom="1"
     inkscape:pageshadow="2"
     inkscape:pageopacity="0.0"
     borderopacity="1.0"
     bordercolor="#666666"
     pagecolor="#ffffff"
     id="base" />
  <defs
     id="defs2">
    <marker
       inkscape:isstock="true"
       style="overflow:visible"
       id="marker2573"
       refX="0"
       refY="0"
       orient="auto"
       inkscape:stockid="TriangleOutL">
      <path
         transform="scale(0.8)"
         style="fill:#decd87;fill-opacity:1;fill-rule:evenodd;stroke:#decd87;stroke-width:1.00000003pt;stroke-opacity:1"
         d="M 5.77,0 -2.88,5 V -5 Z"
         id="path2571"
         inkscape:connector-curvature="0" />
    </marker>
    <marker
       inkscape:isstock="true"
       style="overflow:visible"
       id="marker2184"
       refX="0"
       refY="0"
       orient="auto"
       inkscape:stockid="TriangleOutL">
      <path
         transform="scale(0.8)"
         style="fill:#999999;fill-opacity:1;fill-rule:evenodd;stroke:#999999;stroke-width:1.00000003pt;stroke-opacity:1"
         d="M 5.77,0 -2.88,5 V -5 Z"
         id="path2182"
         inkscape:connector-curvature="0" />
    </marker>
    <marker
       inkscape:stockid="Arrow2Lend"
       orient="auto"
       refY="0"
       refX="0"
       id="marker2130"
       style="overflow:visible"
       inkscape:isstock="true">
      <path
         id="path2128"
         style="fill:#decd87;fill-opacity:1;fill-rule:evenodd;stroke:#decd87;stroke-width:0.625;stroke-linejoin:round;stroke-opacity:1"
         d="M 8.7185878,4.0337352 -2.2072895,0.01601326 8.7185884,-4.0017078 c -1.7454984,2.3720609 -1.7354408,5.6174519 -6e-7,8.035443 z"
         transform="matrix(-1.1,0,0,-1.1,-1.1,0)"
         inkscape:connector-curvature="0" />
    </marker>
    <marker
       inkscape:isstock="true"
       style="overflow:visible"
       id="marker1678"
       refX="0"
       refY="0"
       orient="auto"
       inkscape:stockid="Arrow2Lend">
      <path
         transform="matrix(-1.1,0,0,-1.1,-1.1,0)"
         d="M 8.7185878,4.0337352 -2.2072895,0.01601326 8.7185884,-4.0017078 c -1.7454984,2.3720609 -1.7354408,5.6174519 -6e-7,8.035443 z"
         style="fill:#2ca02c;fill-opacity:1;fill-rule:evenodd;stroke:#2ca02c;stroke-width:0.625;stroke-linejoin:round;stroke-opacity:1"
         id="path1676"
         inkscape:connector-curvature="0" />
    </marker>
    <marker
       inkscape:stockid="Arrow1Lend"
       orient="auto"
       refY="0"
       refX="0"
       id="Arrow1Lend"
       style="overflow:visible"
       inkscape:isstock="true">
      <path
         id="path1378"
         d="M 0,0 5,-5 -12.5,0 5,5 Z"
         style="fill:#000000;fill-opacity:1;fill-rule:evenodd;stroke:#000000;stroke-width:1.00000003pt;stroke-opacity:1"
         transform="matrix(-0.8,0,0,-0.8,-10,0)"
         inkscape:connector-curvature="0" />
    </marker>
    <linearGradient
       id="linearGradient1240"
       inkscape:collect="always">
      <stop
         id="stop1236"
         offset="0"
         style="stop-color:#decd87;stop-opacity:1" />
      <stop
         id="stop1238"
         offset="1"
         style="stop-color:#eeffaa;stop-opacity:1" />
    </linearGradient>
    <linearGradient
       id="linearGradient1234"
       inkscape:collect="always">
      <stop
         id="stop1230"
         offset="0"
         style="stop-color:#decd87;stop-opacity:1" />
      <stop
         id="stop1232"
         offset="1"
         style="stop-color:#eeffaa;stop-opacity:1" />
    </linearGradient>
    <linearGradient
       id="linearGradient1228"
       inkscape:collect="always">
      <stop
         id="stop1224"
         offset="0"
         style="stop-color:#decd87;stop-opacity:1" />
      <stop
         id="stop1226"
         offset="1"
         style="stop-color:#eeffaa;stop-opacity:1" />
    </linearGradient>
    <linearGradient
       id="linearGradient1216"
       inkscape:collect="always">
      <stop
         id="stop1212"
         offset="0"
         style="stop-color:#decd87;stop-opacity:1" />
      <stop
         id="stop1214"
         offset="1"
         style="stop-color:#eeffaa;stop-opacity:1" />
    </linearGradient>
    <inkscape:path-effect
       fuse_tolerance="0"
       vertical_pattern="false"
       prop_units="false"
       tang_offset="0"
       normal_offset="0"
       spacing="0"
       scale_y_rel="false"
       prop_scale="1"
       copytype="single_stretched"
       pattern="M 0,0 H 1"
       is_visible="true"
       id="path-effect961"
       effect="skeletal" />
    <clipPath
       clipPathUnits="userSpaceOnUse"
       id="clipPath1229">
      <rect
         y="80.074341"
         x="-3.5367348"
         height="71.953049"
         width="66.400497"
         id="rect1231"
         style="opacity:1;fill:none;fill-opacity:1;fill-rule:nonzero;stroke:#4d4d4d;stroke-width:2.12199998;stroke-linecap:round;stroke-linejoin:round;stroke-miterlimit:4;stroke-dasharray:none;stroke-dashoffset:0;stroke-opacity:1"
         ry="8.5661879"
         rx="8.5661879" />
    </clipPath>
    <clipPath
       clipPathUnits="userSpaceOnUse"
       id="clipPath1071">
      <rect
         rx="8.5661879"
         ry="8.5661879"
         style="opacity:1;fill:none;fill-opacity:1;fill-rule:nonzero;stroke:#4d4d4d;stroke-width:2.12199998;stroke-linecap:round;stroke-linejoin:round;stroke-miterlimit:4;stroke-dasharray:none;stroke-dashoffset:0;stroke-opacity:1"
         id="rect1073"
         width="66.400497"
         height="71.953049"
         x="-52.95393"
         y="78.740959" />
    </clipPath>
    <linearGradient
       inkscape:collect="always"
       xlink:href="#linearGradient1216"
       id="linearGradient1297"
       gradientUnits="userSpaceOnUse"
       x1="118.27671"
       y1="150.38722"
       x2="118.27671"
       y2="88.017876"
       gradientTransform="translate(-15.617587,-1.538416)" />
    <linearGradient
       inkscape:collect="always"
       xlink:href="#linearGradient1240"
       id="linearGradient1318"
       gradientUnits="userSpaceOnUse"
       x1="118.27671"
       y1="150.38722"
       x2="118.27671"
       y2="88.017876"
       gradientTransform="translate(-15.617587,-1.538416)" />
    <linearGradient
       inkscape:collect="always"
       xlink:href="#linearGradient1234"
       id="linearGradient1322"
       gradientUnits="userSpaceOnUse"
       x1="118.27671"
       y1="150.38722"
       x2="118.27671"
       y2="88.017876"
       gradientTransform="translate(-15.617587,-1.538416)" />
    <linearGradient
       inkscape:collect="always"
       xlink:href="#linearGradient1228"
       id="linearGradient1326"
       gradientUnits="userSpaceOnUse"
       x1="118.27671"
       y1="150.38722"
       x2="118.27671"
       y2="88.017876"
       gradientTransform="translate(-15.617587,-1.538416)" />
    <filter
       style="color-interpolation-filters:sRGB;"
       inkscape:label="Drop Shadow"
       id="filter1446">
      <feFlood
         flood-opacity="0.498039"
         flood-color="rgb(255,0,0)"
         result="flood"
         id="feFlood1436" />
      <feComposite
         in="flood"
         in2="SourceGraphic"
         operator="in"
         result="composite1"
         id="feComposite1438" />
      <feGaussianBlur
         in="composite1"
         stdDeviation="2.5"
         result="blur"
         id="feGaussianBlur1440" />
      <feOffset
         dx="8.04912e-016"
         dy="4.57967e-015"
         result="offset"
         id="feOffset1442" />
      <feComposite
         in="offset"
         in2="SourceGraphic"
         operator="out"
         result="composite2"
         id="feComposite1444" />
    </filter>
  </defs>
  <metadata
     id="metadata5">
    <rdf:RDF>
      <cc:Work
         rdf:about="">
        <dc:format>image/svg+xml</dc:format>
        <dc:type
           rdf:resource="http://purl.org/dc/dcmitype/StillImage" />
        <dc:title></dc:title>
      </cc:Work>
    </rdf:RDF>
  </metadata>
  <g
     transform="translate(-55.617818,-38.206457)"
     id="layer1"
     inkscape:groupmode="layer"
     inkscape:label="Calque 1">
    <path
       style="opacity:1;fill:#333333;fill-opacity:1;fill-rule:nonzero;stroke:none;stroke-width:12.71234512;stroke-linecap:round;stroke-linejoin:round;stroke-miterlimit:4;stroke-dasharray:none;stroke-dashoffset:0;stroke-opacity:1"
       clip-path="url(#clipPath1229)"
       d="m -350.59766,196.01172 v 3.50781 4.89258 216.18555 H -98.705078 V 199.51953 h -0.990234 v -3.50781 z"
       transform="matrix(0.26458333,0,0,0.26458333,71.235405,39.744873)"
       id="rect1240"
       inkscape:connector-curvature="0" />
    <g
       id="g1422"
       style="filter:url(#filter1446)">
      <path
         style="opacity:1;fill:url(#linearGradient1318);fill-opacity:1;fill-rule:nonzero;stroke:none;stroke-width:0.66500002;stroke-linecap:round;stroke-linejoin:round;stroke-miterlimit:4;stroke-dasharray:none;stroke-dashoffset:0;stroke-opacity:1"
         d="m 90.31892,64.806288 v 2.923221 h 5.542376 c 1.113366,0 2.009703,0.896333 2.009703,2.009714 V 87.617 h 2.923211 V 68.764817 c 0,-2.193025 -1.765503,-3.958529 -3.958514,-3.958529 z"
         id="path1316"
         inkscape:connector-curvature="0"
         sodipodi:nodetypes="ccssccssc" />
      <path
         inkscape:connector-curvature="0"
         id="path1320"
         d="m 91.648493,54.640203 v 2.923221 h 12.736617 c 1.11337,0 2.0097,0.896332 2.0097,2.009714 V 87.63886 h 2.9232 V 58.59873 c 0,-2.193024 -1.7655,-3.958527 -3.9585,-3.958527 z"
         style="opacity:1;fill:url(#linearGradient1322);fill-opacity:1;fill-rule:nonzero;stroke:none;stroke-width:0.66500002;stroke-linecap:round;stroke-linejoin:round;stroke-miterlimit:4;stroke-dasharray:none;stroke-dashoffset:0;stroke-opacity:1"
         sodipodi:nodetypes="ccssccssc" />
      <path
         sodipodi:nodetypes="ccccssccccsccsccccssc"
         inkscape:connector-curvature="0"
         id="path1121"
         d="m 91.648493,54.576851 c -0.169277,-6.58e-4 -0.306963,0.136174 -0.307355,0.305453 v 2.924173 c 3.91e-4,0.169279 0.138078,0.306115 0.307355,0.305454 h 12.737147 c 0.94905,0 1.70281,0.755658 1.70281,1.704737 v 27.822447 c 4.9e-4,0.168535 0.13692,0.305063 0.30545,0.305454 0.17208,0 0.25979,-0.134573 0.25979,-0.289277 0,0 0.0462,-19.26674 0.0462,-27.838624 0,-1.277686 -1.03655,-2.322632 -2.3142,-2.31612 H 91.95442 v -2.310411 h 13.40372 c 2.02869,0 3.65209,1.623402 3.65209,3.652124 -0.0372,8.904313 0.0338,28.813031 0.0338,28.813031 0,0.144074 0.0921,0.289277 0.27405,0.289277 0.16854,-4.86e-4 0.30506,-0.136919 0.30545,-0.305454 V 58.842261 c 0,-2.357328 -1.90808,-4.26541 -4.26537,-4.26541 z"
         style="color:#000000;font-style:normal;font-variant:normal;font-weight:normal;font-stretch:normal;font-size:medium;line-height:normal;font-family:sans-serif;font-variant-ligatures:normal;font-variant-position:normal;font-variant-caps:normal;font-variant-numeric:normal;font-variant-alternates:normal;font-feature-settings:normal;text-indent:0;text-align:start;text-decoration:none;text-decoration-line:none;text-decoration-style:solid;text-decoration-color:#000000;letter-spacing:normal;word-spacing:normal;text-transform:none;writing-mode:lr-tb;direction:ltr;text-orientation:mixed;dominant-baseline:auto;baseline-shift:baseline;text-anchor:start;white-space:normal;shape-padding:0;clip-rule:nonzero;display:inline;overflow:visible;visibility:visible;opacity:1;isolation:auto;mix-blend-mode:normal;color-interpolation:sRGB;color-interpolation-filters:linearRGB;solid-color:#000000;solid-opacity:1;vector-effect:none;fill:#4d4d4d;fill-opacity:1;fill-rule:nonzero;stroke:none;stroke-width:0.66500002;stroke-linecap:round;stroke-linejoin:round;stroke-miterlimit:4;stroke-dasharray:none;stroke-dashoffset:0;stroke-opacity:1;color-rendering:auto;image-rendering:auto;shape-rendering:auto;text-rendering:auto;enable-background:accumulate" />
      <path
         sodipodi:nodetypes="ccccssccccsccsccccssc"
         inkscape:connector-curvature="0"
         id="path1116"
         d="m 90.318209,64.563947 c -0.168534,4.86e-4 -0.30506,0.136916 -0.305452,0.305452 v 2.924173 c 3.9e-4,0.168536 0.136918,0.305063 0.305452,0.305453 h 5.542375 c 0.949064,0 1.704725,0.753757 1.704725,1.702835 v 17.77162 c 3.89e-4,0.168535 0.136917,0.305064 0.305451,0.305455 0.152406,0 0.272148,-0.135026 0.272148,-0.285295 0,0 0.03378,-11.731382 0.03378,-17.79178 0,-1.277686 -1.038434,-2.314216 -2.316103,-2.314216 h -5.236449 v -2.312316 h 6.210849 c 2.028711,0 3.652095,1.340012 3.652095,3.368734 -0.0525,6.377772 0.0462,19.049578 0.0462,19.049578 0,0.147048 0.11253,0.285295 0.25978,0.285295 0.16928,7.31e-4 0.30696,-0.136176 0.30734,-0.305455 V 68.829355 c 0,-2.357327 -1.908061,-4.265408 -4.265373,-4.265408 z"
         style="color:#000000;font-style:normal;font-variant:normal;font-weight:normal;font-stretch:normal;font-size:medium;line-height:normal;font-family:sans-serif;font-variant-ligatures:normal;font-variant-position:normal;font-variant-caps:normal;font-variant-numeric:normal;font-variant-alternates:normal;font-feature-settings:normal;text-indent:0;text-align:start;text-decoration:none;text-decoration-line:none;text-decoration-style:solid;text-decoration-color:#000000;letter-spacing:normal;word-spacing:normal;text-transform:none;writing-mode:lr-tb;direction:ltr;text-orientation:mixed;dominant-baseline:auto;baseline-shift:baseline;text-anchor:start;white-space:normal;shape-padding:0;clip-rule:nonzero;display:inline;overflow:visible;visibility:visible;opacity:1;isolation:auto;mix-blend-mode:normal;color-interpolation:sRGB;color-interpolation-filters:linearRGB;solid-color:#000000;solid-opacity:1;vector-effect:none;fill:#4d4d4d;fill-opacity:1;fill-rule:nonzero;stroke:none;stroke-width:0.66500002;stroke-linecap:round;stroke-linejoin:round;stroke-miterlimit:4;stroke-dasharray:none;stroke-dashoffset:0;stroke-opacity:1;color-rendering:auto;image-rendering:auto;shape-rendering:auto;text-rendering:auto;enable-background:accumulate" />
      <path
         sodipodi:nodetypes="ccssccssc"
         style="opacity:1;fill:url(#linearGradient1326);fill-opacity:1;fill-rule:nonzero;stroke:none;stroke-width:0.66500002;stroke-linecap:round;stroke-linejoin:round;stroke-miterlimit:4;stroke-dasharray:none;stroke-dashoffset:0;stroke-opacity:1"
         d="m 148.97481,58.806373 v 2.923221 h -20.11283 c -1.11336,0 -2.00969,0.896333 -2.00969,2.009714 v 24.096421 h -2.92321 V 62.764901 c 0,-2.193024 1.76549,-3.958528 3.9585,-3.958528 z"
         id="path1324"
         inkscape:connector-curvature="0" />
      <path
         sodipodi:nodetypes="ssccccsccsccccssccccs"
         inkscape:connector-curvature="0"
         id="path1167"
         d="m 127.88789,58.500632 c -2.35731,0 -4.26537,1.906655 -4.26537,4.263983 v 24.940134 c 4.9e-4,0.168721 0.13721,0.305325 0.30593,0.305454 0.17023,-0.03758 0.28009,-0.154069 0.3083,-0.323535 0,0 -9.2e-4,-14.808436 -9.2e-4,-24.922053 0,-2.028722 1.62339,-3.6526 3.6521,-3.6526 h 20.7807 v 2.310887 H 128.8609 c -1.27767,0 -2.3142,1.038435 -2.3142,2.31612 -0.0883,9.725302 0.0804,23.981904 0.0804,23.981904 0,0.159487 0.0645,0.289277 0.22504,0.289277 0.16872,-1.29e-4 0.30555,-0.136733 0.30594,-0.305454 V 63.739022 c 0,-0.949079 0.75375,-1.702833 1.70282,-1.702833 h 20.11317 c 0.16946,6.57e-4 0.30723,-0.136465 0.30735,-0.305931 v -2.923697 c -1.2e-4,-0.169465 -0.13789,-0.30659 -0.30735,-0.305929 z"
         style="color:#000000;font-style:normal;font-variant:normal;font-weight:normal;font-stretch:normal;font-size:medium;line-height:normal;font-family:sans-serif;font-variant-ligatures:normal;font-variant-position:normal;font-variant-caps:normal;font-variant-numeric:normal;font-variant-alternates:normal;font-feature-settings:normal;text-indent:0;text-align:start;text-decoration:none;text-decoration-line:none;text-decoration-style:solid;text-decoration-color:#000000;letter-spacing:normal;word-spacing:normal;text-transform:none;writing-mode:lr-tb;direction:ltr;text-orientation:mixed;dominant-baseline:auto;baseline-shift:baseline;text-anchor:start;white-space:normal;shape-padding:0;clip-rule:nonzero;display:inline;overflow:visible;visibility:visible;opacity:1;isolation:auto;mix-blend-mode:normal;color-interpolation:sRGB;color-interpolation-filters:linearRGB;solid-color:#000000;solid-opacity:1;vector-effect:none;fill:#4d4d4d;fill-opacity:1;fill-rule:nonzero;stroke:none;stroke-width:0.66500002;stroke-linecap:round;stroke-linejoin:round;stroke-miterlimit:4;stroke-dasharray:none;stroke-dashoffset:0;stroke-opacity:1;color-rendering:auto;image-rendering:auto;shape-rendering:auto;text-rendering:auto;enable-background:accumulate" />
      <path
         sodipodi:nodetypes="cssccccssccssccsscc"
         inkscape:connector-curvature="0"
         id="path1284"
         d="m 116.44431,146.04407 v 15.18467 c 0,2.35734 1.90806,4.26543 4.26538,4.26543 h 6.51677 c 0.16873,-1.4e-4 0.30554,-0.13675 0.30593,-0.30547 v -2.92417 c -4.9e-4,-0.16873 -0.1372,-0.30532 -0.30593,-0.30545 h -5.5419 c -0.94907,0 -1.70472,-0.75567 -1.70472,-1.70474 v -14.21027 h -0.61139 v 14.21027 c 0,1.27768 1.03844,2.31612 2.31611,2.31612 h 5.23456 v 2.31088 h -6.20943 c -2.02871,0 -3.6521,-1.62387 -3.6521,-3.6526 v -15.18467 z"
         style="color:#000000;font-style:normal;font-variant:normal;font-weight:normal;font-stretch:normal;font-size:medium;line-height:normal;font-family:sans-serif;font-variant-ligatures:normal;font-variant-position:normal;font-variant-caps:normal;font-variant-numeric:normal;font-variant-alternates:normal;font-feature-settings:normal;text-indent:0;text-align:start;text-decoration:none;text-decoration-line:none;text-decoration-style:solid;text-decoration-color:#000000;letter-spacing:normal;word-spacing:normal;text-transform:none;writing-mode:lr-tb;direction:ltr;text-orientation:mixed;dominant-baseline:auto;baseline-shift:baseline;text-anchor:start;white-space:normal;shape-padding:0;clip-rule:nonzero;display:inline;overflow:visible;visibility:visible;opacity:1;isolation:auto;mix-blend-mode:normal;color-interpolation:sRGB;color-interpolation-filters:linearRGB;solid-color:#000000;solid-opacity:1;vector-effect:none;fill:#4d4d4d;fill-opacity:1;fill-rule:nonzero;stroke:none;stroke-width:0.66500002;stroke-linecap:round;stroke-linejoin:round;stroke-miterlimit:4;stroke-dasharray:none;stroke-dashoffset:0;stroke-opacity:1;color-rendering:auto;image-rendering:auto;shape-rendering:auto;text-rendering:auto;enable-background:accumulate" />
      <path
         inkscape:connector-curvature="0"
         id="path1295"
         d="m 127.22599,165.24444 v -2.92322 h -5.54238 c -1.11336,0 -2.00969,-0.89633 -2.00969,-2.00971 v -15.00459 h -2.92321 v 15.97899 c 0,2.19302 1.7655,3.95853 3.95851,3.95853 z"
         style="opacity:1;fill:url(#linearGradient1297);fill-opacity:1;fill-rule:nonzero;stroke:none;stroke-width:0.66500002;stroke-linecap:round;stroke-linejoin:round;stroke-miterlimit:4;stroke-dasharray:none;stroke-dashoffset:0;stroke-opacity:1"
         sodipodi:nodetypes="ccssccssc" />
      <rect
         rx="0.8652851"
         ry="0.8652851"
         y="77.606735"
         x="96.339523"
         height="4.0479336"
         width="5.6842904"
         id="rect1357"
         style="opacity:1;fill:#4d4d4d;fill-opacity:1;fill-rule:nonzero;stroke:none;stroke-width:0.26499999;stroke-linecap:round;stroke-linejoin:round;stroke-miterlimit:4;stroke-dasharray:none;stroke-dashoffset:0;stroke-opacity:1" />
      <rect
         style="opacity:1;fill:#4d4d4d;fill-opacity:1;fill-rule:nonzero;stroke:none;stroke-width:0.26499999;stroke-linecap:round;stroke-linejoin:round;stroke-miterlimit:4;stroke-dasharray:none;stroke-dashoffset:0;stroke-opacity:1"
         id="rect1359"
         width="5.6842904"
         height="4.0479336"
         x="105.03568"
         y="77.606735"
         ry="0.8652851"
         rx="0.8652851" />
      <rect
         rx="0.8652851"
         ry="0.8652851"
         y="77.606735"
         x="122.59831"
         height="4.0479336"
         width="5.6842904"
         id="rect1361"
         style="opacity:1;fill:#4d4d4d;fill-opacity:1;fill-rule:nonzero;stroke:none;stroke-width:0.26499999;stroke-linecap:round;stroke-linejoin:round;stroke-miterlimit:4;stroke-dasharray:none;stroke-dashoffset:0;stroke-opacity:1" />
      <path
         sodipodi:nodetypes="cssccccsscccssccssccc"
         inkscape:connector-curvature="0"
         id="path1137"
         d="m 116.44431,145.46948 v 15.75926 c 0,2.35734 1.90806,4.26543 4.26538,4.26543 h 6.51677 c 0.16873,-1.4e-4 0.30554,-0.13675 0.30593,-0.30547 v -2.92417 c -4.9e-4,-0.16873 -0.1372,-0.30532 -0.30593,-0.30545 h -5.5419 c -0.94907,0 -1.70472,-0.75567 -1.70472,-1.70474 v -14.78486 c -0.0353,-0.13193 -0.12372,-0.25214 -0.30568,-0.24761 -0.18679,0 -0.30571,0.13143 -0.30571,0.24761 v 14.78486 c 0,1.27768 1.03844,2.31612 2.31611,2.31612 h 5.23456 v 2.31088 h -6.20943 c -2.02871,0 -3.6521,-1.62387 -3.6521,-3.6526 v -15.75926 c 0,-0.12273 -0.1636,-0.2578 -0.30664,-0.24761 -0.13291,0.0102 -0.30664,0.10646 -0.30664,0.24761 z"
         style="color:#000000;font-style:normal;font-variant:normal;font-weight:normal;font-stretch:normal;font-size:medium;line-height:normal;font-family:sans-serif;font-variant-ligatures:normal;font-variant-position:normal;font-variant-caps:normal;font-variant-numeric:normal;font-variant-alternates:normal;font-feature-settings:normal;text-indent:0;text-align:start;text-decoration:none;text-decoration-line:none;text-decoration-style:solid;text-decoration-color:#000000;letter-spacing:normal;word-spacing:normal;text-transform:none;writing-mode:lr-tb;direction:ltr;text-orientation:mixed;dominant-baseline:auto;baseline-shift:baseline;text-anchor:start;white-space:normal;shape-padding:0;clip-rule:nonzero;display:inline;overflow:visible;visibility:visible;opacity:1;isolation:auto;mix-blend-mode:normal;color-interpolation:sRGB;color-interpolation-filters:linearRGB;solid-color:#000000;solid-opacity:1;vector-effect:none;fill:#4d4d4d;fill-opacity:1;fill-rule:nonzero;stroke:none;stroke-width:0.66500002;stroke-linecap:round;stroke-linejoin:round;stroke-miterlimit:4;stroke-dasharray:none;stroke-dashoffset:0;stroke-opacity:1;color-rendering:auto;image-rendering:auto;shape-rendering:auto;text-rendering:auto;enable-background:accumulate" />
      <path
         sodipodi:nodetypes="ssssssccccsssssssscccccccsss"
         inkscape:connector-curvature="0"
         id="rect2644"
         d="m 102.32841,53.918345 c -0.0373,0 -0.0669,0.03008 -0.0669,0.06731 v 4.392559 c 0,0.03723 0.0296,0.06731 0.0669,0.06731 h 2.13217 c 0.0373,0 0.0673,-0.03008 0.0673,-0.06731 v -0.636983 l 0.94037,0.126209 0.78398,1.075001 0.0217,0.958691 h -0.87206 c -0.0373,0 -0.0669,0.0296 -0.0669,0.06681 v 2.132185 c 0,0.03723 0.0296,0.06731 0.0669,0.06731 h 4.89982 c 0.0373,0 0.0673,-0.03008 0.0673,-0.06731 v -2.132185 c 0,-0.03723 -0.0301,-0.06681 -0.0673,-0.06681 h -0.95324 l 0.0396,-1.227442 -0.33011,-0.859704 -0.4984,-1.492232 -1.20961,-1.00769 -1.16507,-0.447917 -1.65704,-0.05642 v -0.824069 c 0,-0.03723 -0.0301,-0.06731 -0.0673,-0.06731 z"
         style="opacity:1;fill:#4d4d4d;fill-opacity:1;fill-rule:nonzero;stroke:#4d4d4d;stroke-width:0.26499999;stroke-linecap:round;stroke-linejoin:round;stroke-miterlimit:4;stroke-dasharray:none;stroke-dashoffset:0;stroke-opacity:1" />
      <path
         sodipodi:nodetypes="ssssssccccssssssssccccccsss"
         inkscape:connector-curvature="0"
         style="opacity:1;fill:#4d4d4d;fill-opacity:1;fill-rule:nonzero;stroke:#4d4d4d;stroke-width:0.26499999;stroke-linecap:round;stroke-linejoin:round;stroke-miterlimit:4;stroke-dasharray:none;stroke-dashoffset:0;stroke-opacity:1"
         d="m 102.32841,53.918345 c -0.0373,0 -0.0669,0.03008 -0.0669,0.06731 v 4.392559 c 0,0.03723 0.0296,0.06731 0.0669,0.06731 h 2.13217 c 0.0373,0 0.0673,-0.03008 0.0673,-0.06731 v -0.636983 l 0.94037,0.126209 0.78398,1.075001 0.0217,0.958691 h -0.87206 c -0.0373,0 -0.0669,0.0296 -0.0669,0.06681 v 2.132185 c 0,0.03723 0.0296,0.06731 0.0669,0.06731 h 4.89982 c 0.0373,0 0.0673,-0.03008 0.0673,-0.06731 v -2.132185 c 0,-0.03723 -0.0301,-0.06681 -0.0673,-0.06681 h -0.95324 l 0.0396,-1.227442 c -0.0774,-0.853732 -0.54296,-1.333694 -0.82851,-2.351936 l -1.20961,-1.00769 -1.16507,-0.447917 -1.65704,-0.05642 v -0.824069 c 0,-0.03723 -0.0301,-0.06731 -0.0673,-0.06731 z"
         id="path2682" />
      <path
         style="opacity:1;fill:#4d4d4d;fill-opacity:1;fill-rule:nonzero;stroke:#4d4d4d;stroke-width:0.26499999;stroke-linecap:round;stroke-linejoin:round;stroke-miterlimit:4;stroke-dasharray:none;stroke-dashoffset:0;stroke-opacity:1"
         d="m 93.834826,63.998311 c -0.03723,0 -0.06681,0.03008 -0.06681,0.06731 v 4.392558 c 0,0.03723 0.02959,0.06731 0.06681,0.06731 h 2.132168 c 0.03723,0 0.06731,-0.03008 0.06731,-0.06731 v -0.636983 l 0.94037,0.126209 0.783972,1.075001 0.02177,0.958691 h -0.87207 c -0.03723,0 -0.06682,0.0296 -0.06682,0.06681 v 2.132184 c 0,0.03723 0.02959,0.06731 0.06682,0.06731 h 4.899834 c 0.0373,0 0.0673,-0.03008 0.0673,-0.06731 v -2.132184 c 0,-0.03723 -0.0301,-0.06681 -0.0673,-0.06681 h -0.95324 l 0.0396,-1.227441 -0.33012,-0.859705 -0.49839,-1.492232 -1.209618,-1.007689 -1.165072,-0.447918 -1.657033,-0.05642 v -0.82407 c 0,-0.03723 -0.03008,-0.06731 -0.06731,-0.06731 z"
         id="path2684"
         inkscape:connector-curvature="0"
         sodipodi:nodetypes="ssssssccccsssssssscccccccsss" />
      <path
         sodipodi:nodetypes="ssssssccccsssssssscccccccsss"
         inkscape:connector-curvature="0"
         id="path2686"
         d="m 130.95027,57.758156 c 0.0373,0 0.0669,0.03008 0.0669,0.06731 v 4.392558 c 0,0.03723 -0.0296,0.06731 -0.0669,0.06731 h -2.13217 c -0.0373,0 -0.0673,-0.03008 -0.0673,-0.06731 v -0.636983 l -0.94037,0.126209 -0.78397,1.075001 -0.0217,0.958691 h 0.87207 c 0.0373,0 0.0669,0.0296 0.0669,0.06681 v 2.132184 c 0,0.03723 -0.0296,0.06731 -0.0669,0.06731 H 122.977 c -0.0373,0 -0.0673,-0.03008 -0.0673,-0.06731 v -2.132184 c 0,-0.03723 0.0301,-0.06681 0.0673,-0.06681 h 0.95324 l -0.0396,-1.227441 0.33011,-0.859705 0.4984,-1.492232 1.20961,-1.007689 1.16507,-0.447918 1.65704,-0.05642 v -0.824069 c 0,-0.03723 0.0301,-0.06731 0.0673,-0.06731 z"
         style="opacity:1;fill:#4d4d4d;fill-opacity:1;fill-rule:nonzero;stroke:#4d4d4d;stroke-width:0.26499999;stroke-linecap:round;stroke-linejoin:round;stroke-miterlimit:4;stroke-dasharray:none;stroke-dashoffset:0;stroke-opacity:1" />
      <path
         style="opacity:1;fill:#4d4d4d;fill-opacity:1;fill-rule:nonzero;stroke:#4d4d4d;stroke-width:0.26499999;stroke-linecap:round;stroke-linejoin:round;stroke-miterlimit:4;stroke-dasharray:none;stroke-dashoffset:0;stroke-opacity:1"
         d="m 115.93849,158.14555 c 0,-0.0373 0.0301,-0.0668 0.0673,-0.0668 h 4.39253 c 0.0373,0 0.0673,0.0296 0.0673,0.0668 v 2.13219 c 0,0.0373 -0.0301,0.0673 -0.0673,0.0673 h -0.63698 l 0.1262,0.94037 1.075,0.78398 0.95869,0.0217 v -0.87207 c 0,-0.0373 0.0296,-0.0668 0.0669,-0.0668 h 2.13217 c 0.0373,0 0.0673,0.0296 0.0673,0.0668 v 4.89986 c 0,0.0373 -0.0301,0.0673 -0.0673,0.0673 h -2.13217 c -0.0373,0 -0.0669,-0.0301 -0.0669,-0.0673 v -0.95325 l -1.22744,0.0396 -0.8597,-0.33012 -1.49222,-0.4984 -1.00768,-1.20962 -0.44791,-1.16508 -0.0564,-1.65705 h -0.82407 c -0.0373,0 -0.0673,-0.0301 -0.0673,-0.0673 z"
         id="path2688"
         inkscape:connector-curvature="0"
         sodipodi:nodetypes="ssssssccccsssssssscccccccsss" />
    </g>
  </g>
</svg>
