<?xml version="1.0" encoding="UTF-8" standalone="no"?>
<!-- Created with Inkscape (http://www.inkscape.org/) -->

<svg
   xmlns:dc="http://purl.org/dc/elements/1.1/"
   xmlns:cc="http://creativecommons.org/ns#"
   xmlns:rdf="http://www.w3.org/1999/02/22-rdf-syntax-ns#"
   xmlns:svg="http://www.w3.org/2000/svg"
   xmlns="http://www.w3.org/2000/svg"
   xmlns:sodipodi="http://sodipodi.sourceforge.net/DTD/sodipodi-0.dtd"
   xmlns:inkscape="http://www.inkscape.org/namespaces/inkscape"
   sodipodi:docname="bioreactor_shadow_rotator_hover.svg"
   inkscape:version="0.92.3 (2405546, 2018-03-11)"
   id="svg8"
   version="1.1"
   viewBox="0 0 125.6583 132.48125"
   height="132.48125mm"
   width="125.6583mm">
  <sodipodi:namedview
     fit-margin-bottom="0"
     fit-margin-right="0"
     fit-margin-left="0"
     fit-margin-top="0"
     inkscape:window-maximized="1"
     inkscape:window-y="-8"
     inkscape:window-x="1912"
     inkscape:window-height="1017"
     inkscape:window-width="1920"
     inkscape:snap-global="false"
     showgrid="false"
     inkscape:current-layer="layer1"
     inkscape:document-units="mm"
     inkscape:cy="356.57543"
     inkscape:cx="-53.816342"
     inkscape:zoom="0.70710678"
     inkscape:pageshadow="2"
     inkscape:pageopacity="0.0"
     borderopacity="1.0"
     bordercolor="#666666"
     pagecolor="#ffffff"
     id="base" />
  <defs
     id="defs2">
    <marker
       inkscape:isstock="true"
       style="overflow:visible"
       id="marker2573"
       refX="0"
       refY="0"
       orient="auto"
       inkscape:stockid="TriangleOutL">
      <path
         transform="scale(0.8)"
         style="fill:#decd87;fill-opacity:1;fill-rule:evenodd;stroke:#decd87;stroke-width:1.00000003pt;stroke-opacity:1"
         d="M 5.77,0 -2.88,5 V -5 Z"
         id="path2571"
         inkscape:connector-curvature="0" />
    </marker>
    <marker
       inkscape:isstock="true"
       style="overflow:visible"
       id="marker2184"
       refX="0"
       refY="0"
       orient="auto"
       inkscape:stockid="TriangleOutL">
      <path
         transform="scale(0.8)"
         style="fill:#999999;fill-opacity:1;fill-rule:evenodd;stroke:#999999;stroke-width:1.00000003pt;stroke-opacity:1"
         d="M 5.77,0 -2.88,5 V -5 Z"
         id="path2182"
         inkscape:connector-curvature="0" />
    </marker>
    <marker
       inkscape:stockid="Arrow2Lend"
       orient="auto"
       refY="0"
       refX="0"
       id="marker2130"
       style="overflow:visible"
       inkscape:isstock="true">
      <path
         id="path2128"
         style="fill:#decd87;fill-opacity:1;fill-rule:evenodd;stroke:#decd87;stroke-width:0.625;stroke-linejoin:round;stroke-opacity:1"
         d="M 8.7185878,4.0337352 -2.2072895,0.01601326 8.7185884,-4.0017078 c -1.7454984,2.3720609 -1.7354408,5.6174519 -6e-7,8.035443 z"
         transform="matrix(-1.1,0,0,-1.1,-1.1,0)"
         inkscape:connector-curvature="0" />
    </marker>
    <marker
       inkscape:isstock="true"
       style="overflow:visible"
       id="marker1678"
       refX="0"
       refY="0"
       orient="auto"
       inkscape:stockid="Arrow2Lend">
      <path
         transform="matrix(-1.1,0,0,-1.1,-1.1,0)"
         d="M 8.7185878,4.0337352 -2.2072895,0.01601326 8.7185884,-4.0017078 c -1.7454984,2.3720609 -1.7354408,5.6174519 -6e-7,8.035443 z"
         style="fill:#2ca02c;fill-opacity:1;fill-rule:evenodd;stroke:#2ca02c;stroke-width:0.625;stroke-linejoin:round;stroke-opacity:1"
         id="path1676"
         inkscape:connector-curvature="0" />
    </marker>
    <marker
       inkscape:stockid="Arrow1Lend"
       orient="auto"
       refY="0"
       refX="0"
       id="Arrow1Lend"
       style="overflow:visible"
       inkscape:isstock="true">
      <path
         id="path1378"
         d="M 0,0 5,-5 -12.5,0 5,5 Z"
         style="fill:#000000;fill-opacity:1;fill-rule:evenodd;stroke:#000000;stroke-width:1.00000003pt;stroke-opacity:1"
         transform="matrix(-0.8,0,0,-0.8,-10,0)"
         inkscape:connector-curvature="0" />
    </marker>
    <inkscape:path-effect
       fuse_tolerance="0"
       vertical_pattern="false"
       prop_units="false"
       tang_offset="0"
       normal_offset="0"
       spacing="0"
       scale_y_rel="false"
       prop_scale="1"
       copytype="single_stretched"
       pattern="M 0,0 H 1"
       is_visible="true"
       id="path-effect961"
       effect="skeletal" />
    <clipPath
       clipPathUnits="userSpaceOnUse"
       id="clipPath1229">
      <rect
         y="80.074341"
         x="-3.5367348"
         height="71.953049"
         width="66.400497"
         id="rect1231"
         style="opacity:1;fill:none;fill-opacity:1;fill-rule:nonzero;stroke:#4d4d4d;stroke-width:2.12199998;stroke-linecap:round;stroke-linejoin:round;stroke-miterlimit:4;stroke-dasharray:none;stroke-dashoffset:0;stroke-opacity:1"
         ry="8.5661879"
         rx="8.5661879" />
    </clipPath>
    <clipPath
       clipPathUnits="userSpaceOnUse"
       id="clipPath1071">
      <rect
         rx="8.5661879"
         ry="8.5661879"
         style="opacity:1;fill:none;fill-opacity:1;fill-rule:nonzero;stroke:#4d4d4d;stroke-width:2.12199998;stroke-linecap:round;stroke-linejoin:round;stroke-miterlimit:4;stroke-dasharray:none;stroke-dashoffset:0;stroke-opacity:1"
         id="rect1073"
         width="66.400497"
         height="71.953049"
         x="-52.95393"
         y="78.740959" />
    </clipPath>
    <filter
       style="color-interpolation-filters:sRGB;"
       inkscape:label="Drop Shadow"
       id="filter6479">
      <feFlood
         flood-opacity="0.498039"
         flood-color="rgb(0,0,255)"
         result="flood"
         id="feFlood6469" />
      <feComposite
         in="flood"
         in2="SourceGraphic"
         operator="in"
         result="composite1"
         id="feComposite6471" />
      <feGaussianBlur
         in="composite1"
         stdDeviation="1.4"
         result="blur"
         id="feGaussianBlur6473" />
      <feOffset
         dx="8.04912e-016"
         dy="4.57967e-015"
         result="offset"
         id="feOffset6475" />
      <feComposite
         in="offset"
         in2="SourceGraphic"
         operator="out"
         result="composite2"
         id="feComposite6477" />
    </filter>
  </defs>
  <metadata
     id="metadata5">
    <rdf:RDF>
      <cc:Work
         rdf:about="">
        <dc:format>image/svg+xml</dc:format>
        <dc:type
           rdf:resource="http://purl.org/dc/dcmitype/StillImage" />
        <dc:title />
      </cc:Work>
    </rdf:RDF>
  </metadata>
  <g
     transform="translate(-55.617818,-38.206457)"
     id="layer1"
     inkscape:groupmode="layer"
     inkscape:label="Calque 1">
    <path
       inkscape:connector-curvature="0"
       style="opacity:1;fill:#4d4d4d;fill-opacity:1;fill-rule:nonzero;stroke:none;stroke-width:0.80913329;stroke-linecap:round;stroke-linejoin:round;stroke-miterlimit:4;stroke-dasharray:none;stroke-dashoffset:0;stroke-opacity:1;filter:url(#filter6479)"
       d="m 114.48841,41.004473 c -0.72832,0 -1.31454,0.586222 -1.31454,1.31455 v 1.042336 c -0.48732,0.344059 -0.80526,0.910092 -0.80526,1.554593 v 7.802668 c 0,0.644501 0.31794,1.210535 0.80526,1.554595 v 1.101232 c 0,0.728327 0.58622,1.314551 1.31454,1.314551 h 1.70256 v 19.370313 h -0.79238 c -0.45912,0 -0.82902,0.369899 -0.82902,0.829019 v 6.678172 c 0,0.459121 0.3699,0.828523 0.82902,0.828523 h 0.79238 v 23.454525 h -10.6064 c -0.92274,0 -1.66545,0.74271 -1.66545,1.66546 v 3.09335 c 0,0.92275 0.80252,1.99225 1.66545,1.66546 h 0.22718 l 10.37922,-2.55634 v 6.72074 h -10.6064 c -0.92275,0 -1.66545,0.7427 -1.66545,1.66546 v 3.09335 c 0,0.92275 0.80251,1.99225 1.66545,1.66546 h 0.22718 l 10.37922,-2.55635 v 6.48267 h -10.6064 c -0.92275,0 -1.66545,0.74272 -1.66545,1.66546 v 3.09336 c 0,0.92274 0.7427,1.66545 1.66545,1.66545 h 0.22718 l 10.37922,-2.55634 v 4.9944 c 0,0.51267 0.41286,0.92553 0.92553,0.92553 h 2.31332 c 0.51264,0 0.92552,-0.41286 0.92552,-0.92553 v -5.1112 l 10.80338,2.66077 c 0.82885,-0.0972 1.46847,-0.79728 1.46847,-1.65308 v -3.09336 c 0,-0.92274 -0.74322,-1.66546 -1.66594,-1.66546 h -10.60591 v -6.59997 l 10.80338,2.66127 c 0.82885,-0.0972 1.46847,-0.79726 1.46847,-1.65308 v -3.09335 c 0,-0.92276 -0.74322,-1.66546 -1.66594,-1.66546 h -10.60591 v -6.83755 l 10.80338,2.66078 c 0.82884,-0.0972 1.46847,-0.79727 1.46847,-1.65309 v -3.09335 c 0,-0.92275 -0.74323,-1.65796 -1.66594,-1.66546 H 120.35534 V 84.395025 h 0.79238 c 0.45912,0 0.82902,-0.369402 0.82902,-0.828523 V 76.88833 c 0,-0.45912 -0.3699,-0.829019 -0.82902,-0.829019 h -0.79238 V 56.688998 h 2.00694 c 0.72833,0 1.31455,-0.586224 1.31455,-1.314551 v -1.101232 c 0.48737,-0.344055 0.80574,-0.910063 0.80574,-1.554595 v -7.802668 c 0,-0.644531 -0.31837,-1.210538 -0.80574,-1.554593 v -1.042336 c 0,-0.728328 -0.58622,-1.31455 -1.31455,-1.31455 z"
       id="rect1185" />
  </g>
</svg>
