<?xml version="1.0" encoding="UTF-8"?>
<!-- Created with Inkscape (http://www.inkscape.org/) -->
<svg width="8mm" height="7.999mm" version="1.1" viewBox="0 0 8 7.999" xmlns="http://www.w3.org/2000/svg" xmlns:cc="http://creativecommons.org/ns#" xmlns:dc="http://purl.org/dc/elements/1.1/" xmlns:rdf="http://www.w3.org/1999/02/22-rdf-syntax-ns#">
 <metadata>
  <rdf:RDF>
   <cc:Work rdf:about="">
    <dc:format>image/svg+xml</dc:format>
    <dc:type rdf:resource="http://purl.org/dc/dcmitype/StillImage"/>
    <dc:title/>
   </cc:Work>
  </rdf:RDF>
 </metadata>
 <g transform="translate(312.66 -61.913)">
  <g transform="matrix(.33329 0 0 .33329 -314 60.58)">
   <path d="m4 4v2h1v4c0 2.7461 2.2539 5 5 5h5v1h2v-1h5v3 0.09375 0.90625h6v-0.84375c0.0039-0.05078 0.0039-0.10547 0-0.15625v-4c0-2.7461-2.2539-5-5-5h-6v-1h-2v1h-4v-3h1v-2zm3 2h2v4c0 0.55078 0.44922 1 1 1h5v2h-5c-1.6562 0-3-1.3438-3-3zm10 5h6c1.6562 0 3 1.3438 3 3v3h-2v-3c0-0.55078-0.44922-1-1-1h-6zm8 8.25-0.8125 1.1875s-0.53906 0.75391-1.0625 1.6562c-0.26172 0.45312-0.50781 0.92578-0.71875 1.4062-0.21094 0.48047-0.40625 0.92188-0.40625 1.5 0 1.6445 1.3555 3 3 3s3-1.3555 3-3c0-0.57812-0.19531-1.0195-0.40625-1.5-0.21094-0.48047-0.45703-0.95312-0.71875-1.4062-0.52344-0.90234-1.0625-1.6562-1.0625-1.6562zm0 3.625c0.06641 0.10938 0.05859 0.10156 0.125 0.21875 0.23828 0.41016 0.49219 0.84766 0.65625 1.2188 0.16406 0.37109 0.21875 0.71484 0.21875 0.6875 0 0.55469-0.44531 1-1 1-0.55469 0-1-0.44531-1-1 0 0.02734 0.05469-0.31641 0.21875-0.6875 0.16406-0.37109 0.41797-0.80859 0.65625-1.2188 0.06641-0.11719 0.05859-0.10938 0.125-0.21875z" fill="#808080"/>
  </g>
 </g>
</svg>
