<?xml version="1.0" encoding="UTF-8"?>
<svg xmlns="http://www.w3.org/2000/svg" xmlns:xlink="http://www.w3.org/1999/xlink" width="50pt" height="50pt" viewBox="0 0 50 50" version="1.1">
<g id="surface1">
<path style=" stroke:none;fill-rule:nonzero;fill:#808080;fill-opacity:1;" d="M 18.75 3.125 C 17.460938 3.125 16.40625 4.179688 16.40625 5.46875 C 16.40625 6.757813 17.460938 7.8125 18.75 7.8125 L 18.75 17.921875 C 18.75 19.796875 18.125 21.648438 16.984375 23.140625 L 2.441406 42.160156 C 1.53125 43.347656 1.375 44.917969 2.039063 46.261719 C 2.703125 47.605469 4.046875 48.4375 5.542969 48.4375 L 44.160156 48.4375 C 45.683594 48.4375 47.039063 47.578125 47.691406 46.199219 C 48.347656 44.816406 48.144531 43.226563 47.175781 42.046875 L 31.636719 23.179688 C 30.378906 21.652344 29.679688 19.722656 29.675781 17.746094 L 29.640625 7.8125 L 29.6875 7.8125 C 30.976563 7.8125 32.03125 6.757813 32.03125 5.46875 C 32.03125 4.179688 30.976563 3.125 29.6875 3.125 Z M 18.75 4.6875 L 29.6875 4.6875 C 30.117188 4.6875 30.46875 5.039063 30.46875 5.46875 C 30.46875 5.898438 30.117188 6.25 29.6875 6.25 L 18.75 6.25 C 18.320313 6.25 17.96875 5.898438 17.96875 5.46875 C 17.96875 5.039063 18.320313 4.6875 18.75 4.6875 Z M 20.3125 7.8125 L 28.078125 7.8125 L 28.113281 17.753906 C 28.121094 20.089844 28.941406 22.371094 30.429688 24.171875 L 34.4375 29.039063 L 31.789063 28.3125 C 29.375 27.65625 26.808594 27.910156 24.574219 29.027344 L 24.15625 29.234375 C 21.75 30.441406 18.875 30.441406 16.46875 29.234375 L 14.890625 28.445313 L 18.226563 24.085938 C 19.570313 22.328125 20.3125 20.136719 20.3125 17.921875 Z M 23.046875 21.875 C 21.539063 21.875 20.3125 23.101563 20.3125 24.609375 C 20.3125 26.117188 21.539063 27.34375 23.046875 27.34375 C 24.554688 27.34375 25.78125 26.117188 25.78125 24.609375 C 25.78125 23.101563 24.554688 21.875 23.046875 21.875 Z M 23.046875 23.265625 C 23.789063 23.265625 24.390625 23.867188 24.390625 24.609375 C 24.390625 25.351563 23.789063 25.953125 23.046875 25.953125 C 22.304688 25.953125 21.703125 25.351563 21.703125 24.609375 C 21.703125 23.867188 22.304688 23.265625 23.046875 23.265625 Z M 29.042969 29.515625 C 29.824219 29.511719 30.609375 29.613281 31.371094 29.820313 L 36.152344 31.125 L 45.96875 43.042969 C 46.5625 43.757813 46.675781 44.691406 46.277344 45.53125 C 45.878906 46.371094 45.089844 46.875 44.160156 46.875 L 5.542969 46.875 C 4.628906 46.875 3.84375 46.386719 3.441406 45.570313 C 3.035156 44.75 3.128906 43.832031 3.679688 43.105469 L 13.925781 29.710938 L 15.773438 30.632813 C 17.191406 31.34375 18.753906 31.703125 20.3125 31.703125 C 21.871094 31.703125 23.433594 31.34375 24.851563 30.632813 L 25.269531 30.425781 C 26.453125 29.835938 27.742188 29.527344 29.042969 29.515625 Z M 28.90625 31.25 C 27.183594 31.25 25.78125 32.652344 25.78125 34.375 C 25.78125 36.097656 27.183594 37.5 28.90625 37.5 C 30.628906 37.5 32.03125 36.097656 32.03125 34.375 C 32.03125 32.652344 30.628906 31.25 28.90625 31.25 Z M 28.90625 32.664063 C 29.847656 32.664063 30.617188 33.433594 30.617188 34.375 C 30.617188 35.316406 29.847656 36.085938 28.90625 36.085938 C 27.964844 36.085938 27.195313 35.316406 27.195313 34.375 C 27.195313 33.433594 27.964844 32.664063 28.90625 32.664063 Z M 17.96875 35.15625 C 16.679688 35.15625 15.625 36.210938 15.625 37.5 C 15.625 38.789063 16.679688 39.84375 17.96875 39.84375 C 19.257813 39.84375 20.3125 38.789063 20.3125 37.5 C 20.3125 36.210938 19.257813 35.15625 17.96875 35.15625 Z M 17.96875 36.570313 C 18.480469 36.570313 18.898438 36.988281 18.898438 37.5 C 18.898438 38.011719 18.480469 38.429688 17.96875 38.429688 C 17.457031 38.429688 17.039063 38.011719 17.039063 37.5 C 17.039063 36.988281 17.457031 36.570313 17.96875 36.570313 Z M 5.46875 42.1875 C 5.039063 42.1875 4.6875 42.539063 4.6875 42.96875 L 4.6875 44.53125 C 4.6875 44.960938 5.039063 45.3125 5.46875 45.3125 C 5.898438 45.3125 6.25 44.960938 6.25 44.53125 L 6.25 42.96875 C 6.25 42.539063 5.898438 42.1875 5.46875 42.1875 Z M 9.375 42.1875 C 8.945313 42.1875 8.59375 42.539063 8.59375 42.96875 L 8.59375 44.53125 C 8.59375 44.960938 8.945313 45.3125 9.375 45.3125 C 9.804688 45.3125 10.15625 44.960938 10.15625 44.53125 L 10.15625 42.96875 C 10.15625 42.539063 9.804688 42.1875 9.375 42.1875 Z M 13.28125 42.1875 C 12.851563 42.1875 12.5 42.539063 12.5 42.96875 L 12.5 44.53125 C 12.5 44.960938 12.851563 45.3125 13.28125 45.3125 C 13.710938 45.3125 14.0625 44.960938 14.0625 44.53125 L 14.0625 42.96875 C 14.0625 42.539063 13.710938 42.1875 13.28125 42.1875 Z M 17.1875 42.1875 C 16.757813 42.1875 16.40625 42.539063 16.40625 42.96875 L 16.40625 44.53125 C 16.40625 44.960938 16.757813 45.3125 17.1875 45.3125 C 17.617188 45.3125 17.96875 44.960938 17.96875 44.53125 L 17.96875 42.96875 C 17.96875 42.539063 17.617188 42.1875 17.1875 42.1875 Z M 21.09375 42.1875 C 20.664063 42.1875 20.3125 42.539063 20.3125 42.96875 L 20.3125 44.53125 C 20.3125 44.960938 20.664063 45.3125 21.09375 45.3125 C 21.523438 45.3125 21.875 44.960938 21.875 44.53125 L 21.875 42.96875 C 21.875 42.539063 21.523438 42.1875 21.09375 42.1875 Z M 25 42.1875 C 24.570313 42.1875 24.21875 42.539063 24.21875 42.96875 L 24.21875 44.53125 C 24.21875 44.960938 24.570313 45.3125 25 45.3125 C 25.429688 45.3125 25.78125 44.960938 25.78125 44.53125 L 25.78125 42.96875 C 25.78125 42.539063 25.429688 42.1875 25 42.1875 Z M 28.90625 42.1875 C 28.476563 42.1875 28.125 42.539063 28.125 42.96875 L 28.125 44.53125 C 28.125 44.960938 28.476563 45.3125 28.90625 45.3125 C 29.335938 45.3125 29.6875 44.960938 29.6875 44.53125 L 29.6875 42.96875 C 29.6875 42.539063 29.335938 42.1875 28.90625 42.1875 Z M 32.8125 42.1875 C 32.382813 42.1875 32.03125 42.539063 32.03125 42.96875 L 32.03125 44.53125 C 32.03125 44.960938 32.382813 45.3125 32.8125 45.3125 C 33.242188 45.3125 33.59375 44.960938 33.59375 44.53125 L 33.59375 42.96875 C 33.59375 42.539063 33.242188 42.1875 32.8125 42.1875 Z M 36.71875 42.1875 C 36.289063 42.1875 35.9375 42.539063 35.9375 42.96875 L 35.9375 44.53125 C 35.9375 44.960938 36.289063 45.3125 36.71875 45.3125 C 37.148438 45.3125 37.5 44.960938 37.5 44.53125 L 37.5 42.96875 C 37.5 42.539063 37.148438 42.1875 36.71875 42.1875 Z M 40.625 42.1875 C 40.195313 42.1875 39.84375 42.539063 39.84375 42.96875 L 39.84375 44.53125 C 39.84375 44.960938 40.195313 45.3125 40.625 45.3125 C 41.054688 45.3125 41.40625 44.960938 41.40625 44.53125 L 41.40625 42.96875 C 41.40625 42.539063 41.054688 42.1875 40.625 42.1875 Z M 44.53125 42.1875 C 44.101563 42.1875 43.75 42.539063 43.75 42.96875 L 43.75 44.53125 C 43.75 44.960938 44.101563 45.3125 44.53125 45.3125 C 44.960938 45.3125 45.3125 44.960938 45.3125 44.53125 L 45.3125 42.96875 C 45.3125 42.539063 44.960938 42.1875 44.53125 42.1875 Z "/>
</g>
</svg>
