<svg width="124.99mm" height="131.77mm" version="1.1" viewBox="0 0 124.99 131.77" xmlns="http://www.w3.org/2000/svg">
 <g transform="translate(-55.954 -38.562)">
  <path d="m96.272 80.733h44.002c4.7457 0 8.5662 3.8205 8.5662 8.5662v49.115c0 4.7457-3.8205 8.5662-8.5662 8.5662h-44.002c-4.7457 0-8.5662-3.8205-8.5662-8.5662v-49.115c0-4.7457 3.8205-8.5662 8.5662-8.5662z" fill="#fff" stroke="#808080" stroke-linecap="round" stroke-linejoin="round" stroke-width="2.122"/>
  <g fill="#808080">
   <path d="m93.835 63.998c-0.03723 0-0.06666 0.03047-0.06666 0.0677v0.49816h-3.4499c-0.16853 4.76e-4 -0.30501 0.13687-0.30541 0.30541v2.9244c2.65e-4 0.16854 0.13688 0.30502 0.30541 0.30541h3.4499v0.35915c0 0.03723 0.02944 0.06718 0.06666 0.06718h2.1322c0.03723 0 0.0677-0.02995 0.0677-0.06718v-0.35088c0.86577 0.08559 1.5307 0.80418 1.5307 1.6945v0.17932h-0.65681c-0.03723 0-0.06666 0.02945-0.06666 0.06666v2.1322c0 0.03723 0.02943 0.06718 0.06666 0.06718h0.65681v15.326c2.65e-4 0.16854 0.13687 0.30502 0.30541 0.30541 0.1442 0 0.25572-0.12171 0.26768-0.262h2.3993c0.0114 0.13776 0.11606 0.262 0.25528 0.262 0.16928 7.94e-4 0.30709-0.13613 0.30747-0.30541v-15.326h0.70797c0.0373 0 0.0672-0.02995 0.0672-0.06718v-2.1322c0-0.03723-0.03-0.06666-0.0672-0.06666h-0.70797v-1.1519c0-2.3573-1.9081-4.2654-4.2654-4.2654h-0.80047v-0.49816c0-0.03723-0.03047-0.0677-0.0677-0.0677z"/>
   <path d="m77.914 74.077a9.4421 6.0571 0 0 0-9.181 5.131h-2.8186v1.8456h2.8147a9.4421 6.0571 0 0 0 9.3706 5.1369 9.4421 6.0571 0 0 0 9.2745-5.1369h3.1428c0.69911 0 1.2621 0.56651 1.2621 1.2695v58.919c0 1.3847 1.109 2.4994 2.486 2.4994h5.1458c0.06641 0.51797 0.50226 0.91761 1.0389 0.91761h35.646c0.58278 0 1.0522-0.46944 1.0522-1.0522v-1.953c0-0.58278-0.46945-1.0517-1.0522-1.0517h-35.646c-0.58279 0-1.0522 0.46895-1.0522 1.0517v0.24203h-4.5207c-0.69911 0-1.2621-0.56601-1.2621-1.269v-58.92c0-1.3847-1.1085-2.4994-2.4856-2.4994h-3.7551a9.4421 6.0571 0 0 0-9.4601-5.131z" stroke="#808080" stroke-linecap="round" stroke-linejoin="round" stroke-width=".265"/>
   <path d="m130.02 74.577v9.1294h-0.43059v16.132h1.6771v-16.132h-0.43058v-9.1294z"/>
   <path d="m132.64 74.577v9.1294h-0.66847v11.968h2.1534v-11.968h-0.66896v-9.1294z"/>
   <path d="m135.27 74.577v9.1294h-0.31164v14.257h1.4392v-14.257h-0.31164v-9.1294z"/>
   <path d="m114.49 41.004c-0.72832 0-1.3145 0.58622-1.3145 1.3146v1.0423c-0.48732 0.34406-0.80526 0.91009-0.80526 1.5546v7.8027c0 0.6445 0.31794 1.2105 0.80526 1.5546v1.1012c0 0.72833 0.58622 1.3146 1.3145 1.3146h1.7026v19.37h-0.79238c-0.45912 0-0.82902 0.3699-0.82902 0.82902v6.6782c0 0.45912 0.3699 0.82852 0.82902 0.82852h0.79238v23.455h-10.606c-0.92274 0-1.6654 0.74271-1.6654 1.6655v3.0934c0 0.92275 0.80252 1.9922 1.6654 1.6655h0.22718l10.379-2.5563v6.7207h-10.606c-0.92275 0-1.6654 0.7427-1.6654 1.6655v3.0934c0 0.92275 0.80251 1.9922 1.6654 1.6655h0.22718l10.379-2.5564v6.4827h-10.606c-0.92275 0-1.6654 0.74272-1.6654 1.6655v3.0934c0 0.92274 0.7427 1.6654 1.6654 1.6654h0.22718l10.379-2.5563v4.9944c0 0.51267 0.41286 0.92553 0.92553 0.92553h2.3133c0.51264 0 0.92552-0.41286 0.92552-0.92553v-5.1112l10.803 2.6608c0.82885-0.0972 1.4685-0.79728 1.4685-1.6531v-3.0934c0-0.92274-0.74322-1.6655-1.6659-1.6655h-10.606v-6.6l10.803 2.6613c0.82885-0.0972 1.4685-0.79726 1.4685-1.6531v-3.0934c0-0.92276-0.74322-1.6655-1.6659-1.6655h-10.606v-6.8376l10.803 2.6608c0.82884-0.0972 1.4685-0.79727 1.4685-1.6531v-3.0934c0-0.92275-0.74323-1.658-1.6659-1.6655h-10.606v-23.455h0.79238c0.45912 0 0.82902-0.3694 0.82902-0.82852v-6.6782c0-0.45912-0.3699-0.82902-0.82902-0.82902h-0.79238v-19.37h2.0069c0.72833 0 1.3146-0.58622 1.3146-1.3146v-1.1012c0.48737-0.34406 0.80574-0.91006 0.80574-1.5546v-7.8027c0-0.64453-0.31837-1.2105-0.80574-1.5546v-1.0423c0-0.72833-0.58622-1.3146-1.3146-1.3146z"/>
   <path d="m102.33 53.918c-0.0373 0-0.0672 0.03047-0.0672 0.0677v0.59118h-10.613c-0.16928-6.62e-4 -0.30708 0.13613-0.30748 0.30541v2.9239c2.65e-4 0.16928 0.1382 0.30607 0.30748 0.30541h10.613v0.26665c0 0.03723 0.0299 0.06718 0.0672 0.06718h2.1322c0.0373 0 0.0672-0.02995 0.0672-0.06718v-0.25942c0.88072 0.07141 1.5606 0.79664 1.5606 1.6976v0.08475h-0.68678c-0.0373 0-0.0667 0.02945-0.0667 0.06666v2.1322c0 0.03723 0.0294 0.06718 0.0667 0.06718h0.68678v25.472c5.3e-4 0.16853 0.13688 0.30502 0.30541 0.30541 0.17208 0 0.25941-0.13468 0.25941-0.28939v-0.01603h2.3906v0.01603c0 0.14407 0.0919 0.28939 0.27389 0.28939 0.16854-5.29e-4 0.30502-0.13687 0.30541-0.30541v-25.472h0.67851c0.0373 0 0.0672-0.02995 0.0672-0.06718v-2.1322c0-0.03723-0.03-0.06666-0.0672-0.06666h-0.67851v-1.0588c0-2.3573-1.9081-4.2654-4.2654-4.2654h-0.82992v-0.59118c0-0.03723-0.0305-0.0677-0.0677-0.0677z"/>
   <path d="m128.82 57.758c-0.0372 0-0.0672 0.02995-0.0672 0.06718v0.67541h-0.863c-2.3573 0-4.2654 1.9065-4.2654 4.2638v0.97617h-0.64544c-0.0372 0-0.0672 0.02995-0.0672 0.06718v2.1322c0 0.03723 0.0299 0.06718 0.0672 0.06718h0.64544v21.697c5.3e-4 0.16872 0.13721 0.30528 0.30593 0.30541 0.11306-0.02495 0.19654-0.08717 0.25011-0.17415h2.4624c0.0262 0.10226 0.0921 0.17415 0.21136 0.17415 0.16872-1.3e-4 0.30553-0.13669 0.30592-0.30541v-21.697h0.71882c0.0373 0 0.0667-0.02995 0.0667-0.06718v-2.1322c0-0.03721-0.0294-0.06718-0.0667-0.06718h-0.71882v-0.0016c0-0.91192 0.69629-1.6417 1.5927-1.6976v0.17626c0 0.03723 0.0299 0.06718 0.0672 0.06718h2.1322c0.0373 0 0.0672-0.02995 0.0672-0.06718v-0.1819h17.957c0.16946 6.61e-4 0.30735-0.13646 0.30747-0.30592v-2.9233c-1.2e-4 -0.16946-0.13801-0.30659-0.30747-0.30592h-17.957v-0.67541c0-0.03723-0.0299-0.06718-0.0672-0.06718z"/>
   <path d="m116.75 143.75c-0.13291 0.0102-0.30696 0.10689-0.30696 0.24804v14.082h-0.43822c-0.0372 0-0.0672 0.0294-0.0672 0.0667v2.1322c0 0.0372 0.0299 0.0672 0.0672 0.0672h0.43822v0.88418c0 2.3573 1.908 4.2654 4.2654 4.2654h1.2118v0.62477c0 0.0372 0.0294 0.0672 0.0667 0.0672h2.1322c0.0372 0 0.0677-0.0299 0.0677-0.0672v-0.62477h3.0386c0.0422-3e-5 0.0823-9e-3 0.11886-0.0243 0.10968-0.0464 0.18678-0.15457 0.18707-0.28112v-2.9244c-5.3e-4 -0.16873-0.13719-0.30528-0.30593-0.30541h-3.0386v-0.74001c0-0.0372-0.0304-0.0667-0.0677-0.0667h-2.1322c-0.0373 0-0.0667 0.0294-0.0667 0.0667v0.74001h-0.23667c-0.91837 0-1.6534-0.70817-1.7002-1.6139h0.41393c0.0372 0 0.0672-0.0304 0.0672-0.0677v-2.1322c0-0.0372-0.0299-0.0667-0.0672-0.0667h-0.41858v-14.082c-0.0353-0.13193-0.12345-0.25257-0.30541-0.24804-0.0961 0-0.17364 0.0356-0.22686 0.0853h-2.4805c-0.06-0.0532-0.13978-0.0907-0.216-0.0853z" color="#000000" color-rendering="auto" dominant-baseline="auto" image-rendering="auto" shape-rendering="auto" solid-color="#000000" style="font-feature-settings:normal;font-variant-alternates:normal;font-variant-caps:normal;font-variant-ligatures:normal;font-variant-numeric:normal;font-variant-position:normal;isolation:auto;mix-blend-mode:normal;shape-padding:0;text-decoration-color:#000000;text-decoration-line:none;text-decoration-style:solid;text-indent:0;text-orientation:mixed;text-transform:none;white-space:normal"/>
   <path d="m97.205 77.607h3.9537c0.47937 0 0.86528 0.38592 0.86528 0.86528v2.3174c0 0.47937-0.38591 0.86528-0.86528 0.86528h-3.9537c-0.47937 0-0.86528-0.38592-0.86528-0.86528v-2.3174c0-0.47937 0.38592-0.86528 0.86528-0.86528z"/>
   <path d="m105.9 77.607h3.9537c0.47937 0 0.86528 0.38592 0.86528 0.86528v2.3174c0 0.47937-0.38591 0.86528-0.86528 0.86528h-3.9537c-0.47937 0-0.86529-0.38592-0.86529-0.86528v-2.3174c0-0.47937 0.38592-0.86528 0.86529-0.86528z"/>
   <path d="m123.46 77.607h3.9537c0.47937 0 0.86528 0.38592 0.86528 0.86528v2.3174c0 0.47937-0.38591 0.86528-0.86528 0.86528h-3.9537c-0.47937 0-0.86529-0.38592-0.86529-0.86528v-2.3174c0-0.47937 0.38592-0.86528 0.86529-0.86528z"/>
   <path d="m154.94 66.12c-2.1805 0.02064-4.1494 0.60149-5.5878 1.5472-0.82235 0.54066-1.4706 1.2112-1.8748 1.9647h-3.9693c-2.3573 0-4.2633 1.908-4.2633 4.2654v13.85c5.3e-4 0.16853 0.13688 0.30502 0.30541 0.30541 0.17522 0 0.30592-0.13544 0.30592-0.30127v-0.14314h2.311v0.14314c0 0.16182 0.1429 0.30127 0.30747 0.30127 0.16854-5.29e-4 0.30502-0.13687 0.30541-0.30541v-12.878c0-0.94908 0.75366-1.7027 1.7027-1.7027h3.0003c0.42348 0.78344 1.1106 1.4753 1.9813 2.0257 1.4656 0.9264 3.4495 1.4807 5.6302 1.4738 2.1807-0.0069 4.1584-0.57338 5.6105-1.5095 0.84422-0.54423 1.5099-1.2238 1.9239-1.9901h4.3067c0.16854-5.29e-4 0.30501-0.13687 0.30541-0.30541v-2.9244c-5.3e-4 -0.16853-0.13687-0.30502-0.30541-0.30541h-4.299c-0.432-0.80572-1.1427-1.5145-2.0443-2.0733-1.479-0.91664-3.4719-1.4593-5.6524-1.4387z" color="#000000" color-rendering="auto" dominant-baseline="auto" image-rendering="auto" shape-rendering="auto" solid-color="#000000" style="font-feature-settings:normal;font-variant-alternates:normal;font-variant-caps:normal;font-variant-ligatures:normal;font-variant-numeric:normal;font-variant-position:normal;isolation:auto;mix-blend-mode:normal;shape-padding:0;text-decoration-color:#000000;text-decoration-line:none;text-decoration-style:solid;text-indent:0;text-orientation:mixed;text-transform:none;white-space:normal"/>
   <path d="m139.27 77.607h3.9537c0.47937 0 0.86528 0.38592 0.86528 0.86528v2.3174c0 0.47937-0.38591 0.86528-0.86528 0.86528h-3.9537c-0.47937 0-0.86529-0.38592-0.86529-0.86528v-2.3174c0-0.47937 0.38592-0.86528 0.86529-0.86528z"/>
   <path d="m129.98 77.607h6.0638c0.47937 0 0.86528 0.38592 0.86528 0.86528v2.3174c0 0.47937-0.38591 0.86528-0.86528 0.86528h-6.0638c-0.47937 0-0.86528-0.38592-0.86528-0.86528v-2.3174c0-0.47937 0.38591-0.86528 0.86528-0.86528z"/>
   <g stroke="#808080" stroke-linecap="round" stroke-linejoin="round">
    <g stroke-width=".5">
     <path d="m154.89 58.055-4.7058 2.1282 2.3529 1.0636 2.3529 1.0641v-1.4086h3.5281v-1.4388h-3.5281z"/>
     <path d="m85.57 54.253 4.7058 2.1282-2.3529 1.0636-2.3529 1.0641v-1.4086h-3.5281v-1.4388h3.5281z"/>
     <path d="m84.345 64.331 4.7058 2.1282-2.3529 1.0636-2.3529 1.0641v-1.4086h-3.5281v-1.4388h3.5281z"/>
    </g>
    <path d="m61.253 78.352 3.8063 1.6928-1.9032 0.84601-1.9032 0.84641v-1.1204h-2.8537v-1.1444h2.8537z" stroke-width=".265"/>
    <path d="m172.44 68.644 5.8618 2.6611-2.9309 1.3299-2.9309 1.3306v-1.7613h-4.3948v-1.799h4.3948z" stroke-width=".665"/>
    <path d="m131.15 159.95 8.1849 3.7558-4.0924 1.8771-4.0924 1.8779v-2.4858h-2.5611v-2.5392h2.5611z" stroke-width=".7"/>
    <path d="m85.447 91.703c-0.0021 0.08594-0.0063 0.17138-0.0063 0.25785v5.0004h-3.7796v9.9717h3.7796v18.432h-3.7796v9.9717h3.7796v3.5967c0 5.7444 4.6252 10.369 10.37 10.369h45.028c5.745 0 10.37-4.6248 10.37-10.369v-3.5967h3.6769v-9.9717h-3.6769v-18.432h3.6769v-9.9717h-3.6769v-5.0004c0-0.08647-5e-3 -0.1719-7e-3 -0.25785h-3.712s0.0914 29.804 0.15747 46.409c0 4.191-3.3746 7.5652-7.566 7.5652h-43.514c-4.1915 0-7.566-3.3742-7.566-7.5652l0.15746-46.409z" stroke-width=".68"/>
   </g>
   <path d="m97.866 146.22c-1.1185 0-2.0192 0.7478-2.0192 1.677v2.3777c0 0.92916 0.90068 1.6774 2.0192 1.6774h15.078c-0.0187 0.092-0.03 0.18599-0.03 0.28259v1.3884c0 0.92917 0.90021 1.6774 2.0187 1.6774h6.6814c1.1185 0 2.0187-0.74819 2.0187-1.6774v-1.3884c0-0.0966-0.0118-0.19055-0.0305-0.28259h15.078c1.1185 0 2.0192-0.74819 2.0192-1.6774v-2.3777c0-0.92915-0.90069-1.677-2.0192-1.677z"/>
  </g>
  <g fill-opacity="0" stroke-width=".31983">
   <g transform="translate(66.536 -223.76)" style="font-feature-settings:normal;font-variant-caps:normal;font-variant-ligatures:normal;font-variant-numeric:normal" aria-label="DO">
    <path d="m66.027 294.47c0-1.3714-1.0439-1.8013-2.0725-1.8013h-1.31v3.6231h1.351c0.99787 0 2.0316-0.54756 2.0316-1.8218zm-0.91088 0c0 0.80853-0.57826 1.0644-1.2026 1.0644h-0.4145v-2.1186h0.43497c0.60384 0 1.1821 0.24051 1.1821 1.0542z"/>
    <path d="m70.379 294.46c0-1.1616-0.83924-1.8934-1.9753-1.8934-1.1309 0-1.9702 0.73177-1.9702 1.8934 0 1.1463 0.83924 1.9241 1.9702 1.9241 1.136 0 1.9753-0.77784 1.9753-1.9241zm-0.93647 0c0 0.65501-0.42985 1.1258-1.0388 1.1258s-1.0337-0.4708-1.0337-1.1258c0-0.63455 0.41962-1.1053 1.0337-1.1053 0.61408 0 1.0388 0.47079 1.0388 1.1053z"/>
   </g>
   <g transform="translate(-84.331 -224.37)" style="font-feature-settings:normal;font-variant-caps:normal;font-variant-ligatures:normal;font-variant-numeric:normal" aria-label="pH">
    <path d="m216.93 295.01c0-0.7113-0.46567-1.3356-1.2077-1.3356-0.37356 0-0.66013 0.1791-0.81365 0.38379h-0.0154v-0.31215h-0.7983v3.7766h0.83924v-1.5096h0.0102c0.15864 0.22005 0.46056 0.3531 0.77271 0.3531 0.7676 0 1.2128-0.64478 1.2128-1.3561zm-0.81365 0c0 0.33263-0.19957 0.66014-0.59872 0.66014-0.37868 0-0.61408-0.32239-0.61408-0.65502 0-0.32239 0.2354-0.65501 0.61408-0.65501 0.39915 0 0.59872 0.32239 0.59872 0.64989z"/>
    <path d="m220.66 296.29v-3.6231h-0.87506v1.3714h-1.4124v-1.3714h-0.87505v3.6231h0.87505v-1.5147h1.4124v1.5147z"/>
   </g>
   <g transform="translate(-564.9 -223.76)" style="font-feature-settings:normal;font-variant-caps:normal;font-variant-ligatures:normal;font-variant-numeric:normal" aria-label="°C">
    <path d="m696.92 293.44c0-0.48103-0.37868-0.85459-0.85971-0.85459s-0.85971 0.37356-0.85971 0.85459 0.37868 0.85971 0.85971 0.85971 0.85971-0.37868 0.85971-0.85971zm-0.40939 0c0 0.25075-0.19957 0.45032-0.45032 0.45032s-0.45032-0.19957-0.45032-0.45032c0-0.24563 0.19957-0.45032 0.45032-0.45032s0.45032 0.20469 0.45032 0.45032z"/>
    <path d="m700.69 295.79-0.60896-0.57314c-0.15352 0.21493-0.42473 0.36845-0.76759 0.36845-0.60385 0-1.0286-0.45032-1.0286-1.1105 0-0.63966 0.43497-1.1104 1.0439-1.1104 0.27633 0 0.56802 0.10746 0.73177 0.33262l0.59361-0.5936c-0.30192-0.34798-0.84947-0.5322-1.3561-0.5322-1.1053 0-1.965 0.74201-1.965 1.9036 0 1.136 0.83412 1.9139 1.9497 1.9139 0.60896 0 1.09-0.23028 1.4073-0.59873z"/>
   </g>
  </g>
 </g>
</svg>
