<?xml version="1.0" encoding="UTF-8"?>
<svg xmlns="http://www.w3.org/2000/svg" xmlns:xlink="http://www.w3.org/1999/xlink" width="32pt" height="32pt" viewBox="0 0 32 32" version="1.1">
<g id="surface1">
<path style=" stroke:none;fill-rule:nonzero;fill:#808080;fill-opacity:1;" d="M 14.53125 2.398438 L 13.621094 4.671875 C 12.1875 4.96875 10.855469 5.53125 9.667969 6.304688 L 7.421875 5.34375 L 5.34375 7.421875 L 6.304688 9.667969 C 5.53125 10.855469 4.96875 12.1875 4.671875 13.621094 L 2.398438 14.53125 L 2.398438 17.46875 L 4.671875 18.378906 C 4.96875 19.8125 5.53125 21.144531 6.304688 22.332031 L 5.34375 24.578125 L 7.421875 26.65625 L 9.667969 25.695313 C 10.855469 26.46875 12.1875 27.03125 13.621094 27.328125 L 14.53125 29.601563 L 17.46875 29.601563 L 18.378906 27.328125 C 19.8125 27.03125 21.144531 26.46875 22.332031 25.695313 L 24.578125 26.65625 L 26.65625 24.578125 L 25.695313 22.332031 C 26.46875 21.144531 27.03125 19.8125 27.328125 18.378906 L 29.601563 17.46875 L 29.601563 14.53125 L 27.328125 13.621094 C 27.03125 12.1875 26.46875 10.855469 25.695313 9.667969 L 26.65625 7.421875 L 24.578125 5.34375 L 22.332031 6.304688 C 21.144531 5.53125 19.8125 4.96875 18.378906 4.671875 L 17.46875 2.398438 Z M 15.070313 3.199219 L 16.929688 3.199219 L 17.789063 5.347656 L 18.003906 5.386719 C 19.496094 5.667969 20.878906 6.253906 22.085938 7.078125 L 22.269531 7.203125 L 24.394531 6.292969 L 25.707031 7.605469 L 24.796875 9.730469 L 24.921875 9.914063 C 25.746094 11.121094 26.332031 12.503906 26.609375 13.996094 L 26.652344 14.210938 L 28.800781 15.070313 L 28.800781 16.929688 L 26.652344 17.789063 L 26.613281 18.003906 C 26.332031 19.496094 25.746094 20.878906 24.921875 22.085938 L 24.796875 22.269531 L 25.707031 24.394531 L 24.394531 25.707031 L 22.269531 24.796875 L 22.085938 24.921875 C 20.878906 25.746094 19.496094 26.332031 18.003906 26.609375 L 17.789063 26.652344 L 16.929688 28.800781 L 15.070313 28.800781 L 14.210938 26.652344 L 13.996094 26.613281 C 12.503906 26.332031 11.121094 25.746094 9.914063 24.921875 L 9.730469 24.796875 L 7.605469 25.707031 L 6.292969 24.394531 L 7.203125 22.269531 L 7.078125 22.085938 C 6.253906 20.878906 5.667969 19.496094 5.390625 18.003906 L 5.347656 17.789063 L 3.199219 16.929688 L 3.199219 15.070313 L 5.347656 14.210938 L 5.386719 13.996094 C 5.667969 12.503906 6.253906 11.121094 7.078125 9.914063 L 7.203125 9.730469 L 6.292969 7.605469 L 7.605469 6.292969 L 9.730469 7.203125 L 9.914063 7.078125 C 11.121094 6.253906 12.503906 5.667969 13.996094 5.390625 L 14.210938 5.347656 Z M 16 8.398438 C 15.78125 8.398438 15.601563 8.578125 15.601563 8.800781 C 15.601563 9.019531 15.78125 9.199219 16 9.199219 C 16.21875 9.199219 16.398438 9.019531 16.398438 8.800781 C 16.398438 8.578125 16.21875 8.398438 16 8.398438 Z M 14.140625 8.644531 C 14.128906 8.644531 14.121094 8.644531 14.113281 8.644531 C 14.085938 8.648438 14.058594 8.652344 14.03125 8.660156 C 13.820313 8.71875 13.691406 8.9375 13.75 9.148438 C 13.808594 9.363281 14.027344 9.488281 14.238281 9.429688 C 14.453125 9.375 14.578125 9.15625 14.523438 8.941406 C 14.476563 8.769531 14.320313 8.648438 14.140625 8.644531 Z M 17.859375 8.644531 C 17.679688 8.648438 17.523438 8.769531 17.476563 8.941406 C 17.421875 9.15625 17.546875 9.375 17.761719 9.429688 C 17.972656 9.488281 18.191406 9.363281 18.25 9.148438 C 18.308594 8.9375 18.179688 8.71875 17.96875 8.660156 C 17.933594 8.648438 17.898438 8.644531 17.859375 8.644531 Z M 12.390625 9.363281 C 12.324219 9.367188 12.257813 9.382813 12.199219 9.417969 C 12.109375 9.46875 12.039063 9.558594 12.011719 9.660156 C 11.984375 9.765625 12 9.875 12.054688 9.964844 C 12.105469 10.054688 12.195313 10.125 12.296875 10.152344 C 12.398438 10.179688 12.507813 10.164063 12.601563 10.109375 C 12.789063 10 12.855469 9.757813 12.746094 9.5625 C 12.671875 9.4375 12.539063 9.359375 12.390625 9.363281 Z M 19.582031 9.367188 C 19.445313 9.371094 19.320313 9.445313 19.253906 9.5625 C 19.199219 9.65625 19.1875 9.765625 19.210938 9.867188 C 19.242188 9.972656 19.308594 10.058594 19.398438 10.113281 C 19.589844 10.222656 19.835938 10.15625 19.945313 9.964844 C 20.054688 9.773438 19.992188 9.53125 19.800781 9.417969 C 19.734375 9.378906 19.65625 9.363281 19.582031 9.367188 Z M 10.914063 10.507813 C 10.804688 10.507813 10.703125 10.550781 10.625 10.625 C 10.46875 10.78125 10.46875 11.035156 10.625 11.191406 C 10.78125 11.347656 11.035156 11.347656 11.191406 11.191406 C 11.347656 11.035156 11.347656 10.78125 11.191406 10.625 C 11.117188 10.550781 11.019531 10.507813 10.914063 10.507813 Z M 21.097656 10.507813 C 20.988281 10.507813 20.882813 10.546875 20.808594 10.625 C 20.652344 10.78125 20.652344 11.035156 20.808594 11.191406 C 20.964844 11.347656 21.21875 11.347656 21.375 11.191406 C 21.53125 11.035156 21.53125 10.78125 21.375 10.625 C 21.300781 10.550781 21.203125 10.511719 21.097656 10.507813 Z M 22.226563 12 C 22.15625 12 22.09375 12.019531 22.035156 12.054688 C 21.941406 12.105469 21.875 12.195313 21.847656 12.296875 C 21.820313 12.398438 21.835938 12.507813 21.886719 12.601563 C 22 12.789063 22.242188 12.855469 22.433594 12.746094 C 22.625 12.636719 22.691406 12.390625 22.582031 12.199219 C 22.507813 12.074219 22.371094 11.996094 22.226563 12 Z M 9.746094 12 C 9.609375 12.007813 9.484375 12.082031 9.417969 12.199219 C 9.363281 12.292969 9.351563 12.402344 9.378906 12.503906 C 9.40625 12.605469 9.472656 12.695313 9.5625 12.746094 C 9.757813 12.859375 10 12.789063 10.109375 12.601563 C 10.222656 12.410156 10.15625 12.164063 9.964844 12.054688 C 9.898438 12.015625 9.820313 11.996094 9.746094 12 Z M 16 12.800781 C 14.238281 12.800781 12.800781 14.238281 12.800781 16 C 12.800781 17.761719 14.238281 19.199219 16 19.199219 C 17.761719 19.199219 19.199219 17.761719 19.199219 16 C 19.199219 14.238281 17.761719 12.800781 16 12.800781 Z M 16 13.601563 C 17.328125 13.601563 18.398438 14.671875 18.398438 16 C 18.398438 17.328125 17.328125 18.398438 16 18.398438 C 14.671875 18.398438 13.601563 17.328125 13.601563 16 C 13.601563 14.671875 14.671875 13.601563 16 13.601563 Z M 9.042969 13.738281 C 8.859375 13.738281 8.703125 13.859375 8.65625 14.03125 C 8.601563 14.246094 8.726563 14.464844 8.941406 14.523438 C 9.15625 14.582031 9.375 14.453125 9.429688 14.242188 C 9.488281 14.027344 9.363281 13.808594 9.148438 13.75 C 9.113281 13.742188 9.078125 13.734375 9.042969 13.738281 Z M 22.957031 13.738281 C 22.949219 13.734375 22.9375 13.738281 22.929688 13.738281 C 22.902344 13.738281 22.875 13.742188 22.851563 13.75 C 22.636719 13.808594 22.511719 14.027344 22.570313 14.242188 C 22.625 14.453125 22.84375 14.582031 23.058594 14.523438 C 23.273438 14.464844 23.398438 14.246094 23.339844 14.03125 C 23.292969 13.859375 23.136719 13.738281 22.957031 13.738281 Z M 8.800781 15.601563 C 8.578125 15.601563 8.398438 15.78125 8.398438 16 C 8.398438 16.21875 8.578125 16.398438 8.800781 16.398438 C 9.019531 16.398438 9.199219 16.21875 9.199219 16 C 9.199219 15.78125 9.019531 15.601563 8.800781 15.601563 Z M 23.199219 15.601563 C 22.980469 15.601563 22.800781 15.78125 22.800781 16 C 22.800781 16.21875 22.980469 16.398438 23.199219 16.398438 C 23.421875 16.398438 23.601563 16.21875 23.601563 16 C 23.601563 15.78125 23.421875 15.601563 23.199219 15.601563 Z M 9.0625 17.464844 C 9.019531 17.460938 8.980469 17.46875 8.941406 17.476563 C 8.726563 17.535156 8.601563 17.753906 8.65625 17.96875 C 8.714844 18.179688 8.933594 18.308594 9.148438 18.25 C 9.363281 18.191406 9.488281 17.972656 9.429688 17.761719 C 9.386719 17.589844 9.234375 17.46875 9.0625 17.464844 Z M 22.949219 17.464844 C 22.769531 17.464844 22.613281 17.585938 22.570313 17.761719 C 22.539063 17.863281 22.554688 17.972656 22.609375 18.0625 C 22.660156 18.15625 22.75 18.222656 22.851563 18.25 C 23.066406 18.308594 23.285156 18.179688 23.34375 17.96875 C 23.398438 17.753906 23.273438 17.535156 23.058594 17.476563 C 23.023438 17.46875 22.988281 17.464844 22.949219 17.464844 Z M 9.757813 19.199219 C 9.6875 19.203125 9.625 19.21875 9.5625 19.253906 C 9.375 19.363281 9.308594 19.609375 9.417969 19.800781 C 9.46875 19.890625 9.558594 19.957031 9.660156 19.984375 C 9.765625 20.015625 9.875 20 9.964844 19.945313 C 10.054688 19.894531 10.125 19.804688 10.152344 19.703125 C 10.179688 19.601563 10.164063 19.492188 10.109375 19.398438 C 10.039063 19.273438 9.902344 19.195313 9.757813 19.199219 Z M 22.21875 19.203125 C 22.078125 19.207031 21.957031 19.28125 21.886719 19.398438 C 21.835938 19.492188 21.820313 19.601563 21.847656 19.703125 C 21.875 19.808594 21.945313 19.894531 22.035156 19.949219 C 22.226563 20.058594 22.46875 19.992188 22.582031 19.800781 C 22.691406 19.609375 22.625 19.367188 22.4375 19.253906 C 22.367188 19.214844 22.292969 19.199219 22.21875 19.203125 Z M 10.914063 20.691406 C 10.804688 20.691406 10.703125 20.734375 10.625 20.808594 C 10.46875 20.964844 10.46875 21.21875 10.625 21.375 C 10.78125 21.53125 11.035156 21.53125 11.191406 21.375 C 11.347656 21.21875 11.347656 20.964844 11.191406 20.808594 C 11.117188 20.734375 11.019531 20.691406 10.914063 20.691406 Z M 21.097656 20.691406 C 20.988281 20.6875 20.882813 20.730469 20.808594 20.808594 C 20.652344 20.964844 20.652344 21.21875 20.808594 21.375 C 20.964844 21.53125 21.21875 21.53125 21.375 21.375 C 21.53125 21.21875 21.53125 20.964844 21.375 20.808594 C 21.300781 20.734375 21.203125 20.695313 21.097656 20.691406 Z M 19.589844 21.835938 C 19.523438 21.835938 19.457031 21.855469 19.398438 21.886719 C 19.207031 22 19.140625 22.242188 19.253906 22.433594 C 19.363281 22.625 19.609375 22.691406 19.800781 22.582031 C 19.890625 22.527344 19.957031 22.441406 19.984375 22.335938 C 20.015625 22.234375 20 22.125 19.945313 22.035156 C 19.875 21.90625 19.734375 21.832031 19.589844 21.835938 Z M 12.382813 21.835938 C 12.242188 21.84375 12.121094 21.917969 12.054688 22.035156 C 11.941406 22.226563 12.007813 22.472656 12.199219 22.582031 C 12.289063 22.636719 12.398438 22.648438 12.503906 22.621094 C 12.605469 22.59375 12.695313 22.527344 12.746094 22.4375 C 12.800781 22.34375 12.8125 22.234375 12.785156 22.132813 C 12.757813 22.03125 12.691406 21.941406 12.601563 21.890625 C 12.53125 21.851563 12.457031 21.832031 12.382813 21.835938 Z M 14.132813 22.554688 C 13.953125 22.558594 13.796875 22.679688 13.75 22.851563 C 13.691406 23.066406 13.820313 23.285156 14.03125 23.34375 C 14.246094 23.398438 14.464844 23.273438 14.523438 23.058594 C 14.550781 22.957031 14.535156 22.847656 14.484375 22.753906 C 14.429688 22.664063 14.34375 22.597656 14.238281 22.570313 C 14.203125 22.558594 14.167969 22.554688 14.132813 22.554688 Z M 17.878906 22.554688 C 17.839844 22.554688 17.796875 22.558594 17.761719 22.570313 C 17.546875 22.625 17.421875 22.84375 17.476563 23.058594 C 17.535156 23.273438 17.753906 23.398438 17.96875 23.34375 C 18.179688 23.285156 18.308594 23.066406 18.25 22.851563 C 18.203125 22.683594 18.054688 22.5625 17.878906 22.554688 Z M 16 22.800781 C 15.78125 22.800781 15.601563 22.980469 15.601563 23.199219 C 15.601563 23.421875 15.78125 23.601563 16 23.601563 C 16.21875 23.601563 16.398438 23.421875 16.398438 23.199219 C 16.398438 22.980469 16.21875 22.800781 16 22.800781 Z "/>
</g>
</svg>
