<?xml version="1.0" encoding="UTF-8"?>
<svg xmlns="http://www.w3.org/2000/svg" xmlns:xlink="http://www.w3.org/1999/xlink" width="50pt" height="50pt" viewBox="0 0 50 50" version="1.1">
<g id="surface1">
<path style=" stroke:none;fill-rule:nonzero;fill:#808080;fill-opacity:1;" d="M 24.21875 1.5625 C 11.726563 1.5625 1.5625 11.726563 1.5625 24.21875 C 1.5625 36.710938 11.726563 46.875 24.21875 46.875 C 36.710938 46.875 46.875 36.710938 46.875 24.21875 C 46.875 11.726563 36.710938 1.5625 24.21875 1.5625 Z M 24.21875 3.125 C 35.847656 3.125 45.3125 12.589844 45.3125 24.21875 C 45.3125 35.847656 35.847656 45.3125 24.21875 45.3125 C 12.589844 45.3125 3.125 35.847656 3.125 24.21875 C 3.125 12.589844 12.589844 3.125 24.21875 3.125 Z M 24.21875 6.25 C 14.308594 6.25 6.25 14.308594 6.25 24.21875 C 6.25 34.128906 14.308594 42.1875 24.21875 42.1875 C 34.128906 42.1875 42.1875 34.128906 42.1875 24.21875 C 42.1875 18.667969 39.683594 13.515625 35.316406 10.082031 C 34.972656 9.816406 34.480469 9.875 34.214844 10.214844 C 33.949219 10.554688 34.007813 11.042969 34.347656 11.3125 C 38.335938 14.445313 40.625 19.152344 40.625 24.21875 C 40.625 33.265625 33.265625 40.625 24.21875 40.625 C 15.171875 40.625 7.8125 33.265625 7.8125 24.21875 C 7.8125 15.171875 15.171875 7.8125 24.21875 7.8125 C 25.019531 7.8125 25.828125 7.871094 26.613281 7.988281 C 27.042969 8.058594 27.4375 7.753906 27.5 7.324219 C 27.558594 6.898438 27.265625 6.5 26.839844 6.4375 C 25.980469 6.3125 25.097656 6.25 24.21875 6.25 Z M 30.105469 7.300781 C 29.800781 7.3125 29.519531 7.503906 29.410156 7.808594 C 29.261719 8.214844 29.46875 8.664063 29.875 8.8125 C 30.488281 9.039063 31.097656 9.304688 31.675781 9.605469 C 31.792969 9.660156 31.914063 9.6875 32.035156 9.6875 C 32.316406 9.6875 32.59375 9.535156 32.730469 9.265625 C 32.925781 8.878906 32.777344 8.40625 32.390625 8.210938 C 31.757813 7.886719 31.089844 7.59375 30.410156 7.34375 C 30.308594 7.308594 30.207031 7.292969 30.105469 7.300781 Z M 24.25 15.625 C 24.183594 15.625 24.128906 15.644531 24.070313 15.660156 C 23.710938 15.695313 23.363281 15.839844 23.117188 16.105469 C 22.832031 16.414063 22.6875 16.832031 22.71875 17.234375 L 23.4375 28.175781 L 23.46875 28.175781 L 23.46875 28.90625 C 23.46875 29.339844 23.820313 29.6875 24.25 29.6875 C 24.679688 29.6875 25.03125 29.339844 25.03125 28.90625 L 25.03125 27.675781 L 25.71875 17.246094 C 25.75 16.832031 25.605469 16.414063 25.320313 16.105469 C 25.101563 15.867188 24.796875 15.722656 24.484375 15.671875 C 24.40625 15.648438 24.332031 15.625 24.25 15.625 Z M 10.15625 23.4375 C 9.726563 23.4375 9.375 23.785156 9.375 24.21875 L 9.375 25.78125 C 9.375 26.214844 9.726563 26.5625 10.15625 26.5625 C 10.585938 26.5625 10.9375 26.214844 10.9375 25.78125 L 10.9375 24.21875 C 10.9375 23.785156 10.585938 23.4375 10.15625 23.4375 Z M 14.0625 23.4375 C 13.632813 23.4375 13.28125 23.785156 13.28125 24.21875 L 13.28125 25.78125 C 13.28125 26.214844 13.632813 26.5625 14.0625 26.5625 C 14.492188 26.5625 14.84375 26.214844 14.84375 25.78125 L 14.84375 24.21875 C 14.84375 23.785156 14.492188 23.4375 14.0625 23.4375 Z M 17.96875 23.4375 C 17.539063 23.4375 17.1875 23.785156 17.1875 24.21875 L 17.1875 25.78125 C 17.1875 26.214844 17.539063 26.5625 17.96875 26.5625 C 18.398438 26.5625 18.75 26.214844 18.75 25.78125 L 18.75 24.21875 C 18.75 23.785156 18.398438 23.4375 17.96875 23.4375 Z M 30.46875 23.4375 C 30.039063 23.4375 29.6875 23.785156 29.6875 24.21875 L 29.6875 25.78125 C 29.6875 26.214844 30.039063 26.5625 30.46875 26.5625 C 30.898438 26.5625 31.25 26.214844 31.25 25.78125 L 31.25 24.21875 C 31.25 23.785156 30.898438 23.4375 30.46875 23.4375 Z M 34.375 23.4375 C 33.945313 23.4375 33.59375 23.785156 33.59375 24.21875 L 33.59375 25.78125 C 33.59375 26.214844 33.945313 26.5625 34.375 26.5625 C 34.804688 26.5625 35.15625 26.214844 35.15625 25.78125 L 35.15625 24.21875 C 35.15625 23.785156 34.804688 23.4375 34.375 23.4375 Z M 38.28125 23.4375 C 37.851563 23.4375 37.5 23.785156 37.5 24.21875 L 37.5 25.78125 C 37.5 26.214844 37.851563 26.5625 38.28125 26.5625 C 38.710938 26.5625 39.0625 26.214844 39.0625 25.78125 L 39.0625 24.21875 C 39.0625 23.785156 38.710938 23.4375 38.28125 23.4375 Z M 24.25 31.25 C 23.386719 31.25 22.6875 31.949219 22.6875 32.8125 C 22.6875 33.675781 23.386719 34.375 24.25 34.375 C 25.113281 34.375 25.8125 33.675781 25.8125 32.8125 C 25.8125 31.949219 25.113281 31.25 24.25 31.25 Z "/>
</g>
</svg>
