<?xml version="1.0" encoding="UTF-8"?>
<!-- Created with Inkscape (http://www.inkscape.org/) -->
<svg width="18.621mm" height="186.39mm" version="1.1" viewBox="0 0 18.621 186.39" xmlns="http://www.w3.org/2000/svg" xmlns:cc="http://creativecommons.org/ns#" xmlns:dc="http://purl.org/dc/elements/1.1/" xmlns:rdf="http://www.w3.org/1999/02/22-rdf-syntax-ns#">
 <metadata>
  <rdf:RDF>
   <cc:Work rdf:about="">
    <dc:format>image/svg+xml</dc:format>
    <dc:type rdf:resource="http://purl.org/dc/dcmitype/StillImage"/>
    <dc:title/>
   </cc:Work>
  </rdf:RDF>
 </metadata>
 <g transform="translate(-292.35 -47.215)">
  <g fill="#808080">
   <g transform="matrix(.26458 0 0 .26458 708.05 169.29)" style="font-feature-settings:normal;font-variant-caps:normal;font-variant-ligatures:normal;font-variant-numeric:normal" aria-label="pH">
    <path d="m-1538-450.41c0-3.336-2.184-6.264-5.664-6.264-1.752 0-3.096 0.84-3.816 1.8h-0.072v-1.464h-3.744v17.712h3.936v-7.08h0.048c0.744 1.032 2.16 1.656 3.624 1.656 3.6 0 5.688-3.024 5.688-6.36zm-3.816 0c0 1.56-0.936 3.096-2.808 3.096-1.776 0-2.88-1.512-2.88-3.072 0-1.512 1.104-3.072 2.88-3.072 1.872 0 2.808 1.512 2.808 3.048z"/>
    <path d="m-1520.5-444.38v-16.992h-4.104v6.432h-6.624v-6.432h-4.104v16.992h4.104v-7.104h6.624v7.104z"/>
   </g>
   <g transform="matrix(.26458 0 0 .26458 701.99 177.74)" style="font-feature-settings:normal;font-variant-caps:normal;font-variant-ligatures:normal;font-variant-numeric:normal" aria-label="14">
    <path d="m-1538.9-444.38v-16.992h-3.696l-5.592 4.104 2.088 2.856 3.168-2.448v12.48z"/>
    <path d="m-1519.5-447.7v-3.264h-2.352v-10.416h-4.824l-6.912 10.296v3.384h7.992v3.312h3.768v-3.312zm-6.072-3.264h-4.104l4.032-6.288h0.072z"/>
   </g>
   <g transform="matrix(.26458 0 0 .26458 702.19 202.47)" style="font-feature-settings:normal;font-variant-caps:normal;font-variant-ligatures:normal;font-variant-numeric:normal" aria-label="12">
    <path d="m-1538.9-444.38v-16.992h-3.696l-5.592 4.104 2.088 2.856 3.168-2.448v12.48z"/>
    <path d="m-1520.3-444.38v-3.504h-6.936l3.936-3.504c1.56-1.392 2.976-2.808 2.976-5.232 0-3.552-3.024-5.208-6.144-5.208-3.312 0-6.096 2.04-6.48 5.472l3.864 0.528c0.168-1.512 1.056-2.568 2.4-2.568 1.272 0 2.112 0.84 2.112 2.04 0 1.032-0.552 1.824-1.392 2.616l-6.624 6v3.36z"/>
   </g>
   <g transform="matrix(.26458 0 0 .26458 702.05 239.55)" style="font-feature-settings:normal;font-variant-caps:normal;font-variant-ligatures:normal;font-variant-numeric:normal" aria-label="9">
    <path d="m-1519.8-455.76c0-3.72-2.976-6.072-6.696-6.072-3.672 0-6.696 2.304-6.696 6.168 0 3.312 2.616 5.544 5.592 5.544 0.384 0 0.864-0.072 1.2-0.192l-0.048 0.072-4.224 5.856h4.872l4.104-6.12c1.128-1.68 1.896-3.24 1.896-5.256zm-4.032-0.048c0 1.584-1.104 2.688-2.688 2.688s-2.64-1.128-2.64-2.664c0-1.608 1.08-2.736 2.688-2.736s2.64 1.248 2.64 2.712z" fill="#808080"/>
   </g>
   <g transform="matrix(.26458 0 0 .26458 702.21 264.52)" style="font-feature-settings:normal;font-variant-caps:normal;font-variant-ligatures:normal;font-variant-numeric:normal" aria-label="7">
    <path d="m-1520.4-458.16v-3.216h-12.336v3.456h8.04l-6.888 13.536h4.68z" fill="#808080"/>
   </g>
   <g transform="matrix(.26458 0 0 .26458 702.18 289.25)" style="font-feature-settings:normal;font-variant-caps:normal;font-variant-ligatures:normal;font-variant-numeric:normal" aria-label="5">
    <path d="m-1520.3-450c0-3.576-2.736-5.4-6.144-5.4-0.504 0-1.2 0.048-1.704 0.168l0.144-2.688h6.84v-3.456h-10.416l-0.408 9.72c1.2-0.432 2.952-0.744 4.152-0.744 1.656 0 3.48 0.576 3.48 2.592 0 1.632-1.176 2.472-2.544 2.472-1.32 0-2.376-0.864-2.736-2.04l-3.672 1.128c0.792 2.688 3.36 4.32 6.456 4.32 3.336 0 6.552-1.944 6.552-6.072z" fill="#808080"/>
   </g>
   <g transform="matrix(.26458 0 0 .26458 702.17 313.97)" style="font-feature-settings:normal;font-variant-caps:normal;font-variant-ligatures:normal;font-variant-numeric:normal" aria-label="3">
    <path d="m-1520.2-449.33c0-1.896-1.344-3.48-3.264-3.936v-0.072c1.656-0.432 2.856-1.824 2.856-3.696 0-3.264-2.976-4.8-5.976-4.8-2.832 0-5.52 1.464-6.336 4.32l3.744 0.864c0.264-1.152 1.176-1.896 2.328-1.896 1.104 0 2.136 0.648 2.136 1.872 0 1.632-1.464 2.016-2.976 2.016h-1.176v2.952h1.08c1.68 0 3.456 0.504 3.456 2.232 0 1.584-1.32 2.16-2.472 2.16-1.536 0-2.568-0.984-2.88-2.112l-3.744 0.984c0.912 3.168 3.72 4.512 6.816 4.512 3.12 0 6.408-1.68 6.408-5.4z" fill="#808080"/>
   </g>
   <g transform="matrix(.26458 0 0 .26458 703.01 338.7)" style="font-feature-settings:normal;font-variant-caps:normal;font-variant-ligatures:normal;font-variant-numeric:normal" aria-label="1">
    <path d="m-1523.4-444.38v-16.992h-3.696l-5.592 4.104 2.088 2.856 3.168-2.448v12.48z" fill="#808080"/>
   </g>
   <g transform="matrix(.26458 0 0 .26458 702.06 351.06)" style="font-feature-settings:normal;font-variant-caps:normal;font-variant-ligatures:normal;font-variant-numeric:normal" aria-label="0">
    <path d="m-1519.8-452.93c0-4.8-1.824-8.904-6.624-8.904-4.824 0-6.672 4.104-6.672 8.904 0 4.824 1.848 9 6.672 9 4.8 0 6.624-4.176 6.624-9zm-4.128 0c0 2.184-0.384 5.544-2.496 5.544-2.136 0-2.544-3.36-2.544-5.544 0-2.136 0.408-5.496 2.544-5.496 2.112 0 2.496 3.36 2.496 5.496z" fill="#808080"/>
   </g>
  </g>
  <g fill="#666" stroke="#808080" stroke-linecap="round" stroke-linejoin="round">
   <path d="m309.56 230.7v-172.53" stroke-width="2.8241"/>
   <g stroke-width="2.3489">
    <path d="m309.57 206.48h-7.5214"/>
    <path d="m309.57 70.295h-7.5214"/>
    <path d="m309.57 82.675h-7.5214"/>
    <path d="m309.57 95.055h-7.5214"/>
    <path d="m309.57 107.44h-7.5214"/>
    <path d="m309.57 132.2h-7.5214"/>
    <path d="m309.57 156.96h-7.5214"/>
    <path d="m309.57 181.72h-7.5214"/>
   </g>
  </g>
  <g fill="#808080">
   <g transform="matrix(.26458 0 0 .26458 702.13 252.04)" style="font-feature-settings:normal;font-variant-caps:normal;font-variant-ligatures:normal;font-variant-numeric:normal" aria-label="8">
    <path d="m-1520.1-449.23c0-1.992-1.344-3.552-3.048-4.032v-0.072c1.512-0.504 2.592-1.848 2.592-3.72 0-3.144-2.808-4.776-5.928-4.776-3.144 0-5.928 1.704-5.928 4.848 0 1.872 1.128 3.12 2.592 3.672v0.048c-1.656 0.528-3.048 1.992-3.048 4.056 0 3.576 3.024 5.28 6.384 5.28s6.384-1.728 6.384-5.304zm-4.344-7.536c0 1.08-0.864 2.016-2.04 2.016-1.248 0-2.016-0.936-2.016-2.016 0-1.104 0.816-1.944 2.016-1.944 1.128 0 2.04 0.84 2.04 1.944zm0.312 7.392c0 1.368-0.96 2.256-2.352 2.256s-2.376-0.888-2.376-2.256c0-1.32 0.984-2.304 2.376-2.304 1.368 0 2.352 1.008 2.352 2.304z" fill="#808080"/>
   </g>
   <g transform="matrix(.26458 0 0 .26458 702.17 190.1)" style="font-feature-settings:normal;font-variant-caps:normal;font-variant-ligatures:normal;font-variant-numeric:normal" aria-label="13">
    <path d="m-1538.9-444.38v-16.992h-3.696l-5.592 4.104 2.088 2.856 3.168-2.448v12.48z"/>
    <path d="m-1520.2-449.33c0-1.896-1.344-3.48-3.264-3.936v-0.072c1.656-0.432 2.856-1.824 2.856-3.696 0-3.264-2.976-4.8-5.976-4.8-2.832 0-5.52 1.464-6.336 4.32l3.744 0.864c0.264-1.152 1.176-1.896 2.328-1.896 1.104 0 2.136 0.648 2.136 1.872 0 1.632-1.464 2.016-2.976 2.016h-1.176v2.952h1.08c1.68 0 3.456 0.504 3.456 2.232 0 1.584-1.32 2.16-2.472 2.16-1.536 0-2.568-0.984-2.88-2.112l-3.744 0.984c0.912 3.168 3.72 4.512 6.816 4.512 3.12 0 6.408-1.68 6.408-5.4z"/>
   </g>
   <g transform="matrix(.26458 0 0 .26458 703.01 214.83)" style="font-feature-settings:normal;font-variant-caps:normal;font-variant-ligatures:normal;font-variant-numeric:normal" aria-label="11">
    <path d="m-1538.9-444.38v-16.992h-3.696l-5.592 4.104 2.088 2.856 3.168-2.448v12.48z"/>
    <path d="m-1523.4-444.38v-16.992h-3.696l-5.592 4.104 2.088 2.856 3.168-2.448v12.48z"/>
   </g>
   <g transform="matrix(.26458 0 0 .26458 702.06 227.19)" style="font-feature-settings:normal;font-variant-caps:normal;font-variant-ligatures:normal;font-variant-numeric:normal" aria-label="10">
    <path d="m-1538.9-444.38v-16.992h-3.696l-5.592 4.104 2.088 2.856 3.168-2.448v12.48z"/>
    <path d="m-1519.8-452.93c0-4.8-1.824-8.904-6.624-8.904-4.824 0-6.672 4.104-6.672 8.904 0 4.824 1.848 9 6.672 9 4.8 0 6.624-4.176 6.624-9zm-4.128 0c0 2.184-0.384 5.544-2.496 5.544-2.136 0-2.544-3.36-2.544-5.544 0-2.136 0.408-5.496 2.544-5.496 2.112 0 2.496 3.36 2.496 5.496z"/>
   </g>
   <g transform="matrix(.26458 0 0 .26458 702.06 276.88)" style="font-feature-settings:normal;font-variant-caps:normal;font-variant-ligatures:normal;font-variant-numeric:normal" aria-label="6">
    <path d="m-1519.8-450.1c0-3.312-2.592-5.544-5.568-5.544-0.384 0-0.888 0.072-1.2 0.192l0.072-0.12 4.176-5.808h-4.872l-4.104 6.12c-1.128 1.68-1.896 3.24-1.896 5.256 0 3.72 3 6.072 6.696 6.072 3.672 0 6.696-2.304 6.696-6.168zm-4.032 0.096c0 1.608-1.08 2.712-2.664 2.712-1.608 0-2.664-1.224-2.664-2.688 0-1.584 1.104-2.688 2.688-2.688s2.64 1.128 2.64 2.664z" fill="#808080"/>
   </g>
   <g transform="matrix(.26458 0 0 .26458 701.99 301.61)" style="font-feature-settings:normal;font-variant-caps:normal;font-variant-ligatures:normal;font-variant-numeric:normal" aria-label="4">
    <path d="m-1519.5-447.7v-3.264h-2.352v-10.416h-4.824l-6.912 10.296v3.384h7.992v3.312h3.768v-3.312zm-6.072-3.264h-4.104l4.032-6.288h0.072z" fill="#808080"/>
   </g>
   <g transform="matrix(.26458 0 0 .26458 702.19 326.21)" style="font-feature-settings:normal;font-variant-caps:normal;font-variant-ligatures:normal;font-variant-numeric:normal" aria-label="2">
    <path d="m-1520.3-444.38v-3.504h-6.936l3.936-3.504c1.56-1.392 2.976-2.808 2.976-5.232 0-3.552-3.024-5.208-6.144-5.208-3.312 0-6.096 2.04-6.48 5.472l3.864 0.528c0.168-1.512 1.056-2.568 2.4-2.568 1.272 0 2.112 0.84 2.112 2.04 0 1.032-0.552 1.824-1.392 2.616l-6.624 6v3.36z" fill="#808080"/>
   </g>
  </g>
  <g fill="#666" stroke="#808080" stroke-linecap="round" stroke-linejoin="round" stroke-width="2.3489">
   <path d="m309.57 218.86h-7.5214"/>
   <path d="m309.57 194.1h-7.5214"/>
   <path d="m309.57 169.34h-7.5214"/>
   <path d="m309.57 144.58h-7.5214"/>
   <path d="m309.57 119.82h-7.5214"/>
   <path d="m309.57 57.915h-7.5214"/>
   <path d="m309.57 231.24h-7.5214"/>
  </g>
 </g>
</svg>
