<?xml version="1.0" encoding="UTF-8"?>
<!-- Created with Inkscape (http://www.inkscape.org/) -->
<svg width="26.705mm" height="185.97mm" version="1.1" viewBox="0 0 26.705 185.97" xmlns="http://www.w3.org/2000/svg" xmlns:cc="http://creativecommons.org/ns#" xmlns:dc="http://purl.org/dc/elements/1.1/" xmlns:rdf="http://www.w3.org/1999/02/22-rdf-syntax-ns#">
 <metadata>
  <rdf:RDF>
   <cc:Work rdf:about="">
    <dc:format>image/svg+xml</dc:format>
    <dc:type rdf:resource="http://purl.org/dc/dcmitype/StillImage"/>
    <dc:title/>
   </cc:Work>
  </rdf:RDF>
 </metadata>
 <g transform="translate(101.42 -26.433)" fill="#808080">
  <g transform="matrix(.26458 0 0 .26458 315.42 148.85)" style="font-feature-settings:normal;font-variant-caps:normal;font-variant-ligatures:normal;font-variant-numeric:normal" aria-label="Tr/min">
   <path d="m-1536.9-457.87v-3.504h-13.704v3.504h4.8v13.488h4.104v-13.488z"/>
   <path d="m-1529.5-456.58c-0.192-0.072-0.528-0.096-0.84-0.096-1.464 0-2.64 0.864-3.24 2.064h-0.048v-1.728h-3.792v11.952h3.936v-6.144c0-0.984 0.696-2.712 2.808-2.712 0.312 0 0.648 0.024 1.008 0.12z"/>
   <path d="m-1519.5-461.74-2.712-0.936-7.416 18.648 2.712 0.888z"/>
   <path d="m-1498.8-444.38v-7.392c0-2.256-1.104-4.896-4.344-4.896-1.776 0-3.024 0.792-3.816 2.04-0.672-1.296-1.872-2.04-3.6-2.04-1.8 0-3.024 0.984-3.576 1.992h-0.048v-1.656h-3.816v11.952h3.96v-6.48c0-1.44 0.72-2.568 1.968-2.568 1.176 0 1.704 0.864 1.704 2.232v6.816h3.936v-6.456c0-1.344 0.648-2.592 1.992-2.592 1.392 0 1.704 1.152 1.704 2.52v6.528z"/>
   <path d="m-1491.6-460.15c0-1.2-1.008-2.16-2.256-2.16-1.272 0-2.256 1.008-2.256 2.16 0 1.176 0.984 2.16 2.256 2.16 1.248 0 2.256-0.936 2.256-2.16zm-0.288 15.768v-11.952h-3.936v11.952z"/>
   <path d="m-1476.9-444.38v-7.392c0-2.4-1.152-4.896-4.368-4.896-1.656 0-3.024 0.936-3.576 1.992h-0.048v-1.656h-3.816v11.952h3.96v-6.48c0-1.368 0.72-2.568 2.112-2.568 1.416 0 1.776 1.2 1.776 2.52v6.528z"/>
  </g>
  <g stroke="#808080" stroke-linecap="round" stroke-linejoin="round">
   <path d="m-76.124 209.5v-172.53" stroke-width="2.8241"/>
   <g stroke-width="2.3489">
    <path d="m-76.122 65.601h-7.5214"/>
    <path d="m-76.122 94.487h-7.5214"/>
    <path d="m-76.122 123.37h-7.5214"/>
    <path d="m-76.122 152.26h-7.5214"/>
   </g>
  </g>
  <g>
   <g transform="matrix(.26458 0 0 .26458 316.43 329.86)" style="font-feature-settings:normal;font-variant-caps:normal;font-variant-ligatures:normal;font-variant-numeric:normal" aria-label="0">
    <path d="m-1519.8-452.93c0-4.8-1.824-8.904-6.624-8.904-4.824 0-6.672 4.104-6.672 8.904 0 4.824 1.848 9 6.672 9 4.8 0 6.624-4.176 6.624-9zm-4.128 0c0 2.184-0.384 5.544-2.496 5.544-2.136 0-2.544-3.36-2.544-5.544 0-2.136 0.408-5.496 2.544-5.496 2.112 0 2.496 3.36 2.496 5.496z" fill="#808080"/>
   </g>
   <g transform="matrix(.26458 0 0 .26458 316.43 300.97)" style="font-feature-settings:normal;font-variant-caps:normal;font-variant-ligatures:normal;font-variant-numeric:normal" aria-label="200">
    <path d="m-1551.3-444.38v-3.504h-6.936l3.936-3.504c1.56-1.392 2.976-2.808 2.976-5.232 0-3.552-3.024-5.208-6.144-5.208-3.312 0-6.096 2.04-6.48 5.472l3.864 0.528c0.168-1.512 1.056-2.568 2.4-2.568 1.272 0 2.112 0.84 2.112 2.04 0 1.032-0.552 1.824-1.392 2.616l-6.624 6v3.36z"/>
    <path d="m-1535.4-452.93c0-4.8-1.824-8.904-6.624-8.904-4.824 0-6.672 4.104-6.672 8.904 0 4.824 1.848 9 6.672 9 4.8 0 6.624-4.176 6.624-9zm-4.128 0c0 2.184-0.384 5.544-2.496 5.544-2.136 0-2.544-3.36-2.544-5.544 0-2.136 0.408-5.496 2.544-5.496 2.112 0 2.496 3.36 2.496 5.496z"/>
    <path d="m-1519.8-452.93c0-4.8-1.824-8.904-6.624-8.904-4.824 0-6.672 4.104-6.672 8.904 0 4.824 1.848 9 6.672 9 4.8 0 6.624-4.176 6.624-9zm-4.128 0c0 2.184-0.384 5.544-2.496 5.544-2.136 0-2.544-3.36-2.544-5.544 0-2.136 0.408-5.496 2.544-5.496 2.112 0 2.496 3.36 2.496 5.496z"/>
   </g>
   <g transform="matrix(.26458 0 0 .26458 316.43 156.54)" style="font-feature-settings:normal;font-variant-caps:normal;font-variant-ligatures:normal;font-variant-numeric:normal" aria-label="1200">
    <path d="m-1570-444.38v-16.992h-3.696l-5.592 4.104 2.088 2.856 3.168-2.448v12.48z"/>
    <path d="m-1551.3-444.38v-3.504h-6.936l3.936-3.504c1.56-1.392 2.976-2.808 2.976-5.232 0-3.552-3.024-5.208-6.144-5.208-3.312 0-6.096 2.04-6.48 5.472l3.864 0.528c0.168-1.512 1.056-2.568 2.4-2.568 1.272 0 2.112 0.84 2.112 2.04 0 1.032-0.552 1.824-1.392 2.616l-6.624 6v3.36z"/>
    <path d="m-1535.4-452.93c0-4.8-1.824-8.904-6.624-8.904-4.824 0-6.672 4.104-6.672 8.904 0 4.824 1.848 9 6.672 9 4.8 0 6.624-4.176 6.624-9zm-4.128 0c0 2.184-0.384 5.544-2.496 5.544-2.136 0-2.544-3.36-2.544-5.544 0-2.136 0.408-5.496 2.544-5.496 2.112 0 2.496 3.36 2.496 5.496z"/>
    <path d="m-1519.8-452.93c0-4.8-1.824-8.904-6.624-8.904-4.824 0-6.672 4.104-6.672 8.904 0 4.824 1.848 9 6.672 9 4.8 0 6.624-4.176 6.624-9zm-4.128 0c0 2.184-0.384 5.544-2.496 5.544-2.136 0-2.544-3.36-2.544-5.544 0-2.136 0.408-5.496 2.544-5.496 2.112 0 2.496 3.36 2.496 5.496z"/>
   </g>
   <g transform="matrix(.26458 0 0 .26458 316.43 272.09)" style="font-feature-settings:normal;font-variant-caps:normal;font-variant-ligatures:normal;font-variant-numeric:normal" aria-label="400">
    <path d="m-1550.6-447.7v-3.264h-2.352v-10.416h-4.824l-6.912 10.296v3.384h7.992v3.312h3.768v-3.312zm-6.072-3.264h-4.104l4.032-6.288h0.072z"/>
    <path d="m-1535.4-452.93c0-4.8-1.824-8.904-6.624-8.904-4.824 0-6.672 4.104-6.672 8.904 0 4.824 1.848 9 6.672 9 4.8 0 6.624-4.176 6.624-9zm-4.128 0c0 2.184-0.384 5.544-2.496 5.544-2.136 0-2.544-3.36-2.544-5.544 0-2.136 0.408-5.496 2.544-5.496 2.112 0 2.496 3.36 2.496 5.496z"/>
    <path d="m-1519.8-452.93c0-4.8-1.824-8.904-6.624-8.904-4.824 0-6.672 4.104-6.672 8.904 0 4.824 1.848 9 6.672 9 4.8 0 6.624-4.176 6.624-9zm-4.128 0c0 2.184-0.384 5.544-2.496 5.544-2.136 0-2.544-3.36-2.544-5.544 0-2.136 0.408-5.496 2.544-5.496 2.112 0 2.496 3.36 2.496 5.496z"/>
   </g>
   <g transform="matrix(.26458 0 0 .26458 316.43 243.2)" style="font-feature-settings:normal;font-variant-caps:normal;font-variant-ligatures:normal;font-variant-numeric:normal" aria-label="600">
    <path d="m-1550.8-450.1c0-3.312-2.592-5.544-5.568-5.544-0.384 0-0.888 0.072-1.2 0.192l0.072-0.12 4.176-5.808h-4.872l-4.104 6.12c-1.128 1.68-1.896 3.24-1.896 5.256 0 3.72 3 6.072 6.696 6.072 3.672 0 6.696-2.304 6.696-6.168zm-4.032 0.096c0 1.608-1.08 2.712-2.664 2.712-1.608 0-2.664-1.224-2.664-2.688 0-1.584 1.104-2.688 2.688-2.688s2.64 1.128 2.64 2.664z"/>
    <path d="m-1535.4-452.93c0-4.8-1.824-8.904-6.624-8.904-4.824 0-6.672 4.104-6.672 8.904 0 4.824 1.848 9 6.672 9 4.8 0 6.624-4.176 6.624-9zm-4.128 0c0 2.184-0.384 5.544-2.496 5.544-2.136 0-2.544-3.36-2.544-5.544 0-2.136 0.408-5.496 2.544-5.496 2.112 0 2.496 3.36 2.496 5.496z"/>
    <path d="m-1519.8-452.93c0-4.8-1.824-8.904-6.624-8.904-4.824 0-6.672 4.104-6.672 8.904 0 4.824 1.848 9 6.672 9 4.8 0 6.624-4.176 6.624-9zm-4.128 0c0 2.184-0.384 5.544-2.496 5.544-2.136 0-2.544-3.36-2.544-5.544 0-2.136 0.408-5.496 2.544-5.496 2.112 0 2.496 3.36 2.496 5.496z"/>
   </g>
   <g transform="matrix(.26458 0 0 .26458 316.43 214.31)" style="font-feature-settings:normal;font-variant-caps:normal;font-variant-ligatures:normal;font-variant-numeric:normal" aria-label="800">
    <path d="m-1551.1-449.23c0-1.992-1.344-3.552-3.048-4.032v-0.072c1.512-0.504 2.592-1.848 2.592-3.72 0-3.144-2.808-4.776-5.928-4.776-3.144 0-5.928 1.704-5.928 4.848 0 1.872 1.128 3.12 2.592 3.672v0.048c-1.656 0.528-3.048 1.992-3.048 4.056 0 3.576 3.024 5.28 6.384 5.28s6.384-1.728 6.384-5.304zm-4.344-7.536c0 1.08-0.864 2.016-2.04 2.016-1.248 0-2.016-0.936-2.016-2.016 0-1.104 0.816-1.944 2.016-1.944 1.128 0 2.04 0.84 2.04 1.944zm0.312 7.392c0 1.368-0.96 2.256-2.352 2.256s-2.376-0.888-2.376-2.256c0-1.32 0.984-2.304 2.376-2.304 1.368 0 2.352 1.008 2.352 2.304z"/>
    <path d="m-1535.4-452.93c0-4.8-1.824-8.904-6.624-8.904-4.824 0-6.672 4.104-6.672 8.904 0 4.824 1.848 9 6.672 9 4.8 0 6.624-4.176 6.624-9zm-4.128 0c0 2.184-0.384 5.544-2.496 5.544-2.136 0-2.544-3.36-2.544-5.544 0-2.136 0.408-5.496 2.544-5.496 2.112 0 2.496 3.36 2.496 5.496z"/>
    <path d="m-1519.8-452.93c0-4.8-1.824-8.904-6.624-8.904-4.824 0-6.672 4.104-6.672 8.904 0 4.824 1.848 9 6.672 9 4.8 0 6.624-4.176 6.624-9zm-4.128 0c0 2.184-0.384 5.544-2.496 5.544-2.136 0-2.544-3.36-2.544-5.544 0-2.136 0.408-5.496 2.544-5.496 2.112 0 2.496 3.36 2.496 5.496z"/>
   </g>
   <g transform="matrix(.26458 0 0 .26458 316.43 185.43)" style="font-feature-settings:normal;font-variant-caps:normal;font-variant-ligatures:normal;font-variant-numeric:normal" aria-label="1000">
    <path d="m-1570-444.38v-16.992h-3.696l-5.592 4.104 2.088 2.856 3.168-2.448v12.48z"/>
    <path d="m-1550.9-452.93c0-4.8-1.824-8.904-6.624-8.904-4.824 0-6.672 4.104-6.672 8.904 0 4.824 1.848 9 6.672 9 4.8 0 6.624-4.176 6.624-9zm-4.128 0c0 2.184-0.384 5.544-2.496 5.544-2.136 0-2.544-3.36-2.544-5.544 0-2.136 0.408-5.496 2.544-5.496 2.112 0 2.496 3.36 2.496 5.496z"/>
    <path d="m-1535.4-452.93c0-4.8-1.824-8.904-6.624-8.904-4.824 0-6.672 4.104-6.672 8.904 0 4.824 1.848 9 6.672 9 4.8 0 6.624-4.176 6.624-9zm-4.128 0c0 2.184-0.384 5.544-2.496 5.544-2.136 0-2.544-3.36-2.544-5.544 0-2.136 0.408-5.496 2.544-5.496 2.112 0 2.496 3.36 2.496 5.496z"/>
    <path d="m-1519.8-452.93c0-4.8-1.824-8.904-6.624-8.904-4.824 0-6.672 4.104-6.672 8.904 0 4.824 1.848 9 6.672 9 4.8 0 6.624-4.176 6.624-9zm-4.128 0c0 2.184-0.384 5.544-2.496 5.544-2.136 0-2.544-3.36-2.544-5.544 0-2.136 0.408-5.496 2.544-5.496 2.112 0 2.496 3.36 2.496 5.496z"/>
   </g>
  </g>
  <g stroke="#808080" stroke-linecap="round" stroke-linejoin="round" stroke-width="2.3489">
   <path d="m-76.122 181.15h-7.5214"/>
   <path d="m-76.122 36.714h-7.5214"/>
   <path d="m-76.122 210.03h-7.5214"/>
  </g>
 </g>
</svg>
